<svg xmlns="http://www.w3.org/2000/svg" viewBox="0 0 500 500"><g id="freepik--background-complete--inject-103"><g><g style="isolation:isolate;"><path d="M149.09,250.92l.89,4.53c-.07-.36-.18-.7-.34-1.02-3.21-6.7-25.4-7.07-52.1,3.13-25.42,9.7-40.25,23.37-38.86,30.44l-.89-4.53c-1.4-7.07,13.44-20.74,38.86-30.44,26.71-10.19,48.89-9.82,52.1-3.13,.16,.32,.27,.67,.34,1.02Z" style="fill:#dbdbdb;"></path><path d="M94.29,248.08c28.87-11.02,55.51-11.25,60.64-.54,5.14,10.72-13.45,27.75-42.32,38.77-28.86,11.02-55.51,11.25-60.64,.54-5.13-10.71,13.46-27.74,42.32-38.76Zm15.95,33.28c26.71-10.19,41.73-24.76,38.52-31.47-3.21-6.7-25.4-7.07-52.1,3.13-26.71,10.19-41.73,24.77-38.52,31.47,3.21,6.71,25.4,7.07,52.1-3.13" style="fill:#ebebeb;"></path><path d="M155.61,249.59l.89,4.53c2.12,10.74-15.91,26.37-43,36.71-28.86,11.02-55.51,11.25-60.64,.54-.32-.66-.54-1.34-.68-2.05l-.89-4.53c.14,.7,.37,1.39,.68,2.05,5.14,10.72,31.78,10.48,60.64-.54,27.09-10.34,45.12-25.97,43-36.71Z" style="fill:#dbdbdb;"></path></g><g><path d="M173.4,189.48c-16.62,4.73-39.73,3.12-49.95-7.73-2.2-2.34-2.02-8.11-1.75-10.58,.99-9.07,15.39-14.94,28.2-18.56,16.3-4.6,42.53-4.66,51.38,6,2.16,2.6,3.83,3.57,3.57,6.61-.67,7.78-10.51,18.29-31.46,24.26Z" style="fill:#c7c7c7;"></path><path d="M174.35,185.69c-16.62,4.73-39.73,3.12-49.95-7.73-10.29-10.92,10.16-24.54,26.46-29.14,16.3-4.6,42.53-4.66,51.38,6,7.67,9.24,1.26,22.57-27.89,30.87Z" style="fill:#dbdbdb;"></path><path d="M172.48,182.24c-13.57,3.87-32.46,2.55-40.8-6.32-8.4-8.92,8.3-20.05,21.61-23.81,13.32-3.76,34.75-3.81,41.98,4.9,6.26,7.55,1.03,18.44-22.79,25.22Z" style="fill:#ebebeb;"></path><g><path d="M179.77,167.86c0-.7,4.77-1.77,4.68-.43-.08,1.13-4.67,1.34-4.68,.43Z" style="fill:#fff;"></path><path d="M168.9,158.75c-1.29-.03-1.11-2.63,1.33-2.52,2.04,.09,.35,2.55-1.33,2.52Z" style="fill:#fff;"></path><path d="M180.6,156.38c-.9-.42,1.93-2.83,3.57-1.99,1.38,.7-2.4,2.53-3.57,1.99Z" style="fill:#fff;"></path><path d="M186.74,170.12c.97-.59,4.98,.45,3.06,1.54-1.61,.91-4.32-.77-3.06-1.54Z" style="fill:#fff;"></path><path d="M158.92,177.44c1.23,.14,.28,2.77-2.01,2.46-1.92-.27,.42-2.64,2.01-2.46Z" style="fill:#fff;"></path><path d="M143.85,165.94c-.05,.71-4.86,1.68-4.67,.33,.16-1.14,4.73-1.24,4.67-.33Z" style="fill:#fff;"></path><path d="M150.43,162.17c-.63,.69-5.32,.47-4.02-.82,1.09-1.08,4.84-.07,4.02,.82Z" style="fill:#fff;"></path><path d="M160.1,171.1c1.32-.23,2.88,2.05,.35,2.43-2.12,.32-2.07-2.13-.35-2.43Z" style="fill:#fff;"></path></g><path d="M141.29,183.07s16.72-10.94,14.83-13.6c-1.89-2.66-29.05,.54-29.3,2.34-.25,1.79,6.52,10.61,14.47,11.26Z" style="fill:#dbdbdb;"></path><path d="M141.3,155.83s13.82,8.83,19.52,7.76c5.69-1.08,10.36-15.71,7.12-15.81-3.24-.1-22.3,3.74-26.64,8.06Z" style="fill:#dbdbdb;"></path><path d="M193.31,151.09s-18.78,9.97-17.59,12.82c1.19,2.84,28.17,1.48,28.84-.33,.67-1.81-3.74-11.26-11.26-12.48Z" style="fill:#dbdbdb;"></path><path d="M191.15,176.84s-14.97-8.25-20.6-7c-5.63,1.25-8.7,15.83-5.41,15.82,3.29,0,22.12-4.42,26.01-8.82Z" style="fill:#dbdbdb;"></path></g><g><path d="M417.07,307.92c-16.62,4.73-39.73,3.12-49.95-7.73-2.2-2.34-2.02-8.11-1.75-10.58,.99-9.07,15.39-14.94,28.2-18.56,16.3-4.6,42.53-4.66,51.38,6,2.16,2.6,3.83,3.57,3.57,6.61-.67,7.78-10.51,18.29-31.46,24.26Z" style="fill:#c7c7c7;"></path><path d="M418.02,304.14c-16.62,4.73-39.73,3.12-49.95-7.73-10.29-10.92,10.16-24.54,26.46-29.14,16.3-4.6,42.53-4.66,51.38,6,7.67,9.24,1.26,22.57-27.89,30.87Z" style="fill:#dbdbdb;"></path><path d="M416.14,300.68c-13.57,3.87-32.46,2.55-40.8-6.32-8.4-8.92,8.3-20.05,21.61-23.81s34.75-3.81,41.98,4.9c6.26,7.55,1.03,18.44-22.79,25.22Z" style="fill:#ebebeb;"></path><g><path d="M423.44,286.31c0-.7,4.77-1.77,4.68-.43-.08,1.13-4.67,1.34-4.68,.43Z" style="fill:#fff;"></path><path d="M412.57,277.2c-1.29-.03-1.11-2.63,1.33-2.52,2.04,.09,.35,2.55-1.33,2.52Z" style="fill:#fff;"></path><path d="M424.27,274.83c-.9-.42,1.93-2.83,3.57-1.99,1.38,.7-2.4,2.53-3.57,1.99Z" style="fill:#fff;"></path><path d="M430.41,288.56c.97-.59,4.98,.45,3.06,1.54-1.61,.91-4.32-.77-3.06-1.54Z" style="fill:#fff;"></path><path d="M402.58,295.88c1.23,.14,.28,2.77-2.01,2.46-1.92-.27,.42-2.64,2.01-2.46Z" style="fill:#fff;"></path><path d="M387.51,284.39c-.05,.71-4.86,1.68-4.67,.33,.16-1.14,4.73-1.24,4.67-.33Z" style="fill:#fff;"></path><path d="M394.09,280.62c-.63,.69-5.32,.47-4.02-.82,1.09-1.08,4.84-.07,4.02,.82Z" style="fill:#fff;"></path><path d="M403.77,289.54c1.32-.23,2.88,2.05,.35,2.43-2.12,.32-2.07-2.13-.35-2.43Z" style="fill:#fff;"></path></g><path d="M384.95,301.52s16.72-10.94,14.83-13.6c-1.89-2.66-29.05,.54-29.3,2.34-.25,1.79,6.52,10.61,14.47,11.26Z" style="fill:#dbdbdb;"></path><path d="M384.96,274.27s13.82,8.83,19.52,7.76c5.69-1.08,10.36-15.71,7.12-15.81-3.24-.1-22.3,3.74-26.64,8.06Z" style="fill:#dbdbdb;"></path><path d="M436.98,269.54s-18.78,9.97-17.59,12.82c1.19,2.84,28.17,1.48,28.84-.33,.67-1.81-3.74-11.26-11.26-12.48Z" style="fill:#dbdbdb;"></path><path d="M434.82,295.29s-14.97-8.25-20.6-7c-5.63,1.25-8.7,15.83-5.41,15.82,3.29,0,22.12-4.42,26.01-8.82Z" style="fill:#dbdbdb;"></path></g><g><path d="M397.09,228.2c-17.16-2.04-37.86-12.45-43.1-26.39-1.13-3,1.27-8.26,2.47-10.44,4.41-7.99,19.96-7.85,33.18-6.25,16.81,2.04,41.04,12.1,45.1,25.35,.99,3.23,2.16,4.77,.74,7.48-3.62,6.92-16.75,12.82-38.38,10.25Z" style="fill:#c7c7c7;"></path><path d="M399.43,225.08c-17.16-2.04-37.86-12.45-43.1-26.39-5.28-14.04,18.83-18.73,35.65-16.69,16.81,2.04,41.04,12.1,45.1,25.35,3.51,11.48-7.54,21.31-37.64,17.73Z" style="fill:#dbdbdb;"></path><path d="M399.03,221.17c-14.02-1.67-30.93-10.17-35.21-21.56-4.31-11.47,15.39-15.3,29.12-13.63,13.74,1.67,33.53,9.89,36.84,20.71,2.87,9.38-6.16,17.41-30.75,14.48Z" style="fill:#ebebeb;"></path><g><path d="M411.3,210.72c.26-.65,5.09,.2,4.49,1.41-.51,1.01-4.83-.57-4.49-1.41Z" style="fill:#fff;"></path><path d="M404.79,198.12c-1.18-.52,0-2.85,2.19-1.81,1.85,.87-.66,2.49-2.19,1.81Z" style="fill:#fff;"></path><path d="M416.49,200.45c-.67-.73,2.87-1.87,4.07-.46,1,1.18-3.19,1.41-4.07,.46Z" style="fill:#fff;"></path><path d="M416.87,215.49c1.12-.17,4.42,2.33,2.23,2.6-1.83,.22-3.69-2.38-2.23-2.6Z" style="fill:#fff;"></path><path d="M388.37,211.51c1.08,.6-.81,2.67-2.8,1.49-1.67-.99,1.4-2.27,2.8-1.49Z" style="fill:#fff;"></path><path d="M378.9,195.09c-.31,.63-5.14-.32-4.44-1.5,.59-.99,4.85,.68,4.44,1.5Z" style="fill:#fff;"></path><path d="M386.42,194.15c-.85,.39-5.09-1.62-3.39-2.31,1.42-.58,4.5,1.8,3.39,2.31Z" style="fill:#fff;"></path><path d="M391.91,206.12c1.31,.3,1.87,3-.61,2.38-2.08-.52-1.09-2.76,.61-2.38Z" style="fill:#fff;"></path></g><path d="M369.93,209.91s19.65-3.65,18.93-6.83c-.72-3.18-27.01-10.7-27.93-9.14-.92,1.56,1.93,12.3,9.01,15.97Z" style="fill:#dbdbdb;"></path><path d="M380.44,184.78s9.35,13.48,15.02,14.68c5.67,1.2,15.62-10.5,12.67-11.84-2.95-1.34-22.02-5.15-27.69-2.84Z" style="fill:#dbdbdb;"></path><path d="M430.26,200.47s-21.17,1.96-21.17,5.04c0,3.08,25.43,12.23,26.74,10.82,1.32-1.41,.89-11.83-5.57-15.86Z" style="fill:#dbdbdb;"></path><path d="M418.34,223.39s-10.63-13.39-16.31-14.41c-5.68-1.02-14.13,11.25-11.09,12.51,3.04,1.26,22.11,4.45,27.4,1.9Z" style="fill:#dbdbdb;"></path></g><g><path d="M114.13,157.84c-17.14-2.6-37.75-15.15-42.87-31.75-1.1-3.58,1.34-9.79,2.56-12.36,4.48-9.43,20.03-9.12,33.23-7.08,16.8,2.6,40.94,14.78,44.88,30.54,.96,3.84,2.12,5.68,.68,8.88-3.68,8.17-16.86,15.05-38.47,11.77Z" style="fill:#c7c7c7;"></path><path d="M116.49,154.15c-17.14-2.6-37.75-15.15-42.88-31.75-5.16-16.72,18.99-22.03,35.79-19.44,16.8,2.6,40.94,14.78,44.88,30.54,3.41,13.66-7.72,25.21-37.79,20.65Z" style="fill:#dbdbdb;"></path><path d="M116.13,149.51c-14-2.12-30.84-12.38-35.03-25.94-4.22-13.66,15.52-18,29.24-15.88,13.72,2.12,33.44,12.07,36.66,24.95,2.79,11.16-6.31,20.59-30.87,16.87Z" style="fill:#ebebeb;"></path><g><path d="M128.49,137.23c.27-.77,5.09,.29,4.47,1.72-.51,1.2-4.82-.72-4.47-1.72Z" style="fill:#fff;"></path><path d="M122.08,122.22c-1.18-.63,.01-3.38,2.21-2.13,1.84,1.05-.68,2.95-2.21,2.13Z" style="fill:#fff;"></path><path d="M133.77,125.1c-.67-.87,2.89-2.19,4.07-.51,.99,1.41-3.2,1.64-4.07,.51Z" style="fill:#fff;"></path><path d="M134.01,142.95c1.12-.19,4.4,2.81,2.21,3.1-1.84,.24-3.67-2.86-2.21-3.1Z" style="fill:#fff;"></path><path d="M105.55,137.94c1.07,.72-.83,3.16-2.81,1.74-1.66-1.19,1.42-2.68,2.81-1.74Z" style="fill:#fff;"></path><path d="M96.22,118.36c-.32,.75-5.13-.44-4.42-1.83,.59-1.16,4.84,.85,4.42,1.83Z" style="fill:#fff;"></path><path d="M103.75,117.33c-.85,.45-5.07-1.97-3.37-2.78,1.43-.67,4.48,2.19,3.37,2.78Z" style="fill:#fff;"></path><path d="M109.13,131.58c1.3,.37,1.84,3.58-.63,2.81-2.07-.64-1.06-3.29,.63-2.81Z" style="fill:#fff;"></path></g><path d="M87.13,135.85s19.68-4.13,18.99-7.91c-.7-3.79-26.92-12.97-27.85-11.13-.93,1.84,1.82,14.61,8.87,19.04Z" style="fill:#dbdbdb;"></path><path d="M97.85,106.14s9.23,16.09,14.89,17.57c5.66,1.48,15.71-12.3,12.77-13.92-2.94-1.62-21.97-6.33-27.66-3.65Z" style="fill:#dbdbdb;"></path><path d="M147.54,125.26s-21.19,2.11-21.21,5.77c-.03,3.65,25.32,14.77,26.65,13.11,1.33-1.66,.99-14.03-5.44-18.87Z" style="fill:#dbdbdb;"></path><path d="M135.42,152.34s-10.51-15.99-16.18-17.26c-5.67-1.27-14.23,13.21-11.2,14.73,3.03,1.53,22.07,5.5,27.38,2.53Z" style="fill:#dbdbdb;"></path></g><path d="M308.75,123.12l-.13,3.94c.01-.31-.02-.62-.08-.92-1.38-6.2-19.78-10.8-43.99-7.49-23.04,3.16-38.04,11.66-38.25,17.82l.13-3.94c.21-6.16,15.21-14.67,38.25-17.82,24.21-3.32,42.61,1.29,43.99,7.49,.07,.3,.09,.61,.08,.92Z" style="fill:#dbdbdb;"></path><path d="M263.66,110.14c26.17-3.58,48.4,1.38,50.6,11.29,2.2,9.92-16.57,20.5-42.75,24.08-26.16,3.58-48.4-1.38-50.6-11.3-2.2-9.91,16.58-20.49,42.75-24.07Zm6.83,30.8c24.21-3.32,39.54-12.53,38.17-18.74-1.38-6.2-19.78-10.8-43.99-7.49-24.21,3.32-39.54,12.54-38.17,18.74,1.38,6.21,19.78,10.8,43.99,7.49" style="fill:#ebebeb;"></path><path d="M314.43,123.28l-.13,3.94c-.31,9.36-18.36,18.88-42.92,22.24-26.16,3.58-48.4-1.38-50.6-11.3-.14-.61-.19-1.22-.17-1.84l.13-3.94c-.02,.61,.04,1.23,.17,1.84,2.2,9.92,24.43,14.88,50.6,11.3,24.56-3.36,42.6-12.88,42.92-22.24Z" style="fill:#dbdbdb;"></path><path d="M367.06,93.43l-2,4.16c.16-.33,.27-.67,.34-1.02,1.44-7.29-16.09-20.88-43.58-28.72-26.16-7.47-46.23-5.42-49.35,1.08l2-4.16c3.12-6.5,23.19-8.55,49.35-1.08,27.49,7.85,45.02,21.44,43.58,28.72-.07,.35-.18,.69-.34,1.02Z" style="fill:#dbdbdb;"></path><path d="M324.89,58.31c29.72,8.48,51.18,24.26,48.87,35.91-2.31,11.66-27.39,14.15-57.11,5.67-29.7-8.48-51.18-24.26-48.86-35.92,2.31-11.65,27.4-14.14,57.11-5.66Zm-7.18,36.2c27.49,7.85,48.25,5.19,49.69-2.1,1.44-7.29-16.09-20.88-43.58-28.72-27.49-7.85-48.25-5.18-49.69,2.1-1.45,7.3,16.09,20.88,43.58,28.72" style="fill:#ebebeb;"></path><path d="M373.07,96.27l-2,4.16c-4.74,9.87-28.54,11.57-56.43,3.62-29.7-8.48-51.18-24.26-48.86-35.92,.14-.72,.37-1.4,.68-2.05l2-4.16c-.31,.65-.54,1.33-.68,2.05-2.31,11.66,19.16,27.44,48.86,35.92,27.88,7.96,51.69,6.26,56.43-3.62Z" style="fill:#dbdbdb;"></path></g></g><g id="freepik--Bowl--inject-103"><g><g><path d="M421.53,347.84c-4.69,38.33-25.43,68.98-54.98,89.55-27.77,19.32-79.67,28.35-130.84,22.09-51.16-6.26-99.36-27.54-121.65-52.98-23.72-27.08-36.46-61.84-31.77-100.16l339.24,41.51Z" style="fill:#dbdbdb;"></path><path d="M421.53,347.84c-4.69,38.33-25.43,68.98-54.98,89.55-27.77,19.32-79.67,28.35-130.84,22.09-51.16-6.26-99.36-27.54-121.65-52.98-23.72-27.08-36.46-61.84-31.77-100.16l339.24,41.51Z" style="fill:#fff; opacity:.3;"></path><g><path d="M403.12,399.66c-1.73,2.72-3.55,5.36-5.47,7.92-31.62,13.44-70.18,20.58-110.76,20.58-14.35,0-28.96-.89-43.6-2.72-50.21-6.25-106.27-16.63-153.14-57.62-1.31-3.26-2.48-6.58-3.5-9.96,18.51,17.84,39.86,31.5,64.7,41.45,30.69,12.3,62.62,17.44,92.56,21.17,58.53,7.29,116.36-.47,159.21-20.82Z" style="fill:#455a64;"></path><path d="M392.72,413.74c-.92,1.09-1.86,2.17-2.84,3.23-30.48,11.42-66.62,17.46-104.53,17.46-14.6,0-29.44-.89-44.33-2.72-46.65-5.72-98.27-14.89-143.09-47.79-.79-1.35-1.54-2.73-2.26-4.11,15.21,11.72,32.11,21.19,50.97,28.62,31.41,12.37,64.04,17.55,94.62,21.3,54.8,6.72,109.02,.76,151.46-15.99Z" style="fill:#455a64;"></path></g><path d="M421.53,347.84c-4.69,38.33-25.43,68.98-54.98,89.55-27.77,19.32-79.67,28.35-130.84,22.09-8.37-1.02-16.66-2.45-24.77-4.23,42.44,1.16,82.55-7.79,105.77-23.95,29.55-20.57,50.29-51.22,54.98-89.55l49.84,6.1Z" style="opacity:.1;"></path></g><g><path d="M421.53,347.84c-8.65,70.73-144.4,64.32-179.5,60.03-35.11-4.3-168.39-30.8-159.74-101.54,9.48-77.45,139.58-72.06,180.37-67.07,40.78,4.99,168.35,31.13,158.87,108.58Z" style="fill:#ebebeb;"></path><path d="M421.53,347.84c-8.65,70.73-144.4,64.32-179.5,60.03-35.11-4.3-168.39-30.8-159.74-101.54,9.48-77.45,139.58-72.06,180.37-67.07,40.78,4.99,168.35,31.13,158.87,108.58Z" style="fill:#fff; opacity:.5;"></path><path d="M405.53,345.45c-7.61,62.22-130.48,56.16-162.26,52.27-31.79-3.89-152.49-27.63-144.88-89.85,8.34-68.13,126.1-62.98,163.02-58.46,36.92,4.52,152.45,27.91,144.11,96.04Z" style="fill:#a6a6a6; opacity:.4;"></path><path d="M396.86,366.82c-30.03,39.28-126.04,34.27-153.59,30.9-28.36-3.47-127.46-22.73-143.12-71.02,30.07-46.51,122.73-42.62,154.71-38.71,32.76,4.01,127.38,23.41,142,78.83Z" style="fill:#a6a6a6; opacity:.4;"></path></g></g></g><g id="freepik--Parsley--inject-103"><g><path d="M248.32,248.14s-1.45-9.08-1.12-14.45c.33-5.37,3.62-13.74,4.37-15.61,.74-1.87,.47-2.92,.47-2.92,0,0,1.59,7.03,1.54,8.15-.05,1.12-.71,3.54-.71,3.54,0,0,5.74-6.82,8.75-7.79,3.01-.97,16.03-1.37,16.4-1.24,.37,.13-.57,2.1-.93,2.95-.36,.85-6.04,8.25-8.33,10.53s-10.58,5.16-11.57,6.21c-1,1.05-6.8,13.42-6.8,13.42l-2.07-2.78Z" style="fill:#455a64;"></path><g><path d="M224.57,236.38s-.25-16.99,.34-23.27,5.56-18.13,5.97-19.45c.41-1.31,1.6,6.67,1.12,8.55-.47,1.88,5.83-12.74,9.04-19.84,3.21-7.11,16.1-24.83,16.54-26.04,.44-1.21,1.99,6.13,1.41,7.6,0,0,4.85-5.48,11.8-10.1s16.59-10.97,17.48-11.32c.89-.35-.28,11.45-1.41,14.93-1.13,3.48-16.7,29.47-19.17,32.44-2.47,2.97-10.69,9.36-10.69,9.36,0,0,6.49-3.08,6.61-2.24,.12,.84-4.77,5.78-9.68,8.65-4.91,2.87-18.69,10.88-20.2,12.17-1.51,1.29-8.06,26.26-8.06,26.26l-1.11-7.7Z" style="fill:#455a64;"></path><g><path d="M228.13,221.69c2.65-7.13,5.22-14.39,9.18-20.92,2.11-3.2,4.44-6.2,6.74-9.24,5.85-7.52,11.62-15.14,18.35-21.91,4.06-3.72,8.46-7.96,12.38-11.8l8.19-7.95c-6.53,6.92-13.09,13.83-20.02,20.34-4.02,3.99-7.54,8.52-11.13,12.91-5.77,7.5-12.31,14.55-16.71,22.96-2.54,5.1-4.77,10.35-6.96,15.62h0Z" style="fill:#37474f;"></path><path d="M254.25,165.31c-1.97,4.53-5.18,10.94-7.38,15.45-1.89,3.63-3.24,8.02-4.68,11.88-.51,1.33-.98,2.68-1.5,4.01,1.01-4.17,2.19-8.3,3.62-12.35,2.71-6.63,6.35-12.82,9.95-19h0Z" style="fill:#37474f;"></path><path d="M253.09,201.63c-6.96,3.57-14.63,5.75-21.01,10.36,5.62-5.65,13.61-7.99,21.01-10.36h0Z" style="fill:#37474f;"></path></g></g><g><path d="M184.2,354.57s-23.28-14.4-29.59-18.59c-6.31-4.19-14.31-6.72-19.08-11.12-4.77-4.4-9.69-6.51-15.4-9.04-5.71-2.53-17.99-4.82-17.42-3.81,.57,1.01,9.17,7.39,12.69,9.87,3.52,2.48,15.15,6.33,15.15,6.33,0,0-22.92-1.65-32.02-.18-9.09,1.47-32.38,9.65-30.04,11.5,2.34,1.85,20.05,5.97,27.81,5.96,7.76,0,38.2-7.61,42.17-7.32,3.97,.3,16,3.35,16,3.35,0,0-9.39-.9-16.59,.71-7.2,1.61-20.04,9.55-20.66,10.34-.62,.78,16.19,1.3,22.4-.34,6.21-1.64,18.17-6.22,24.3-4.87,6.14,1.35,23.4,11.5,23.4,11.5l-3.13-4.29Z" style="fill:#455a64;"></path><g><path d="M79.63,337.31c5.9-1.13,11.81-2.17,17.73-3.18,1.52-.26,5.2-.88,6.66-1.12,3.74-.58,7.52-.67,11.29-.83,6.01-.14,12.02-.2,18.04,.02,3.01,0,6.07,.51,8.9,1.55,2.86,.94,5.7,1.91,8.51,2.96-2.88-.85-5.75-1.73-8.65-2.52-2.89-.95-5.75-1.35-8.79-1.27-5.99-.07-12-.02-17.99,.19-4.47,.12-8.99,.26-13.39,1.05l-4.46,.66c-5.95,.87-11.89,1.73-17.85,2.48h0Z" style="fill:#37474f;"></path><path d="M129.11,348.96c5.26-1.96,10.46-3.82,15.97-5.07,5.58-.72,11.15-.64,16.74-.38l-4.17,.3c-4.01,.28-8.5,.45-12.42,1-5.21,1.14-10.9,2.96-16.12,4.15h0Z" style="fill:#37474f;"></path><path d="M110.28,315.05c4.99,2.5,9.89,5.41,14.72,8.23,2.83,1.53,6.13,3.12,8.91,4.77-1.83-.67-4.44-1.79-6.25-2.57-6.19-2.72-11.83-6.59-17.38-10.42h0Z" style="fill:#37474f;"></path></g></g><g><path d="M191.88,292.11s-13.46-10.24-15.87-13.37c-2.4-3.13-5.89-13.96-6.76-14.65-.87-.69,1.6,7.32-1.47,6.01s-6.6-3.93-10.21-7.32c-3.61-3.39-6.66-13.39-7.17-16.06-.51-2.67-.57-6.06-1.27-6.69-.7-.63-1.27,3.45-1.27,3.45,0,0-3.01-5.52-3.32-8.25-.3-2.73-.98-8.16-3.29-12.37-2.31-4.22-14.7-13.4-15.52-13.7-.82-.3-.1,1.96,.14,4.85,.24,2.89,1.1,13.43,1.58,15.86,.48,2.42,4.54,9.34,4.54,9.34,0,0-5.03-2.6-6.56-3.85-1.53-1.25-5.29-6.44-6.74-9.97s-1.23-9.18-2.6-11.56c-1.37-2.38-3.13-5.39-3.52-5.66-.4-.27-1.09,3.96-.89,4.78,.2,.82-1.39-6.37-3.34-10.21-1.95-3.84-14.37-10.41-14.7-10.53-.33-.12-.07,9.33,1.04,12.73,1.11,3.4,7.96,12.91,7.96,12.91,0,0-4.7-3.48-5.92-4.92-1.21-1.44-6.62-10.79-8.21-13.25-1.59-2.46-4.3-4.58-4.81-4.89-.51-.31,.46,5.53,.1,5.15-.36-.38-2.84-5.16-5.07-7.23-2.23-2.07-12.4-4.57-12.4-4.57,0,0,7.62,18.9,9.41,22.17,1.78,3.28,5.76,8.72,5.76,8.72,0,0-6.56-4.52-6.89-4.65-.33-.12,5.89,9.4,8.52,12.74,2.63,3.34,10.48,10.47,11.98,11.15,1.5,.68,7.16,2.89,7.16,2.89l-8.26,.07s9.3,6.92,13.52,7.98c4.22,1.06,15.37,3.3,16.17,3.84,.8,.54-1.71,2.61-2.12,2.71s-7.13,.74-8.3,.18c-1.17-.56,2.17,2.92,19.11,9.04,16.95,6.12,32.6,14.39,35.9,15.6,3.29,1.21,23.58,11.54,23.58,11.54Z" style="fill:#455a64;"></path><g><path d="M168.68,278.34c-9.53-6.63-21.42-14.84-30.58-21.73-3.25-2.61-6.38-5.3-9.96-7.5-4.65-3.02-9.45-5.81-14.41-8.28-2.52-1.22-4.87-2.81-7.09-4.49-5.51-4.19-10.62-9.07-15.55-13.91-.81-.84-2.22-2.06-2.88-3.06-6.43-9.1-12.32-18.51-18.3-27.88l9.3,13.83c3.12,4.59,6.19,9.24,9.48,13.69,.42,.58,.81,1.02,1.36,1.51,5.44,5.28,10.99,10.67,17.04,15.23,2.21,1.66,4.5,3.19,6.98,4.39,4.98,2.51,9.79,5.33,14.45,8.39,2.9,1.89,5.76,3.95,8.34,6.29l1.63,1.29c9.05,6.95,20.91,15.41,30.19,22.24h0Z" style="fill:#37474f;"></path><path d="M104.14,243.76c3.2,.94,6.44,1.96,9.76,2.32,1.08,.09,2.29,.07,3.37,.29,4.46,.8,8.76,2.15,12.98,3.74-3.86-.9-9.26-2.33-13.11-2.98-1.12-.23-2.18-.2-3.33-.32-3.37-.48-6.59-1.67-9.68-3.05h0Z" style="fill:#37474f;"></path><path d="M153.29,267.78c-4.57-8.06-8.91-16.2-13.21-24.41-3.89-8.43-6.99-17.15-9.91-25.94,3.1,7.58,7.12,18.34,10.6,25.6,3.73,7.26,9.04,17.49,12.51,24.75h0Z" style="fill:#37474f;"></path><path d="M98.1,199.39c3.12,6.51,7.57,15.5,10.94,21.76,3.5,7.18,7.04,14.79,10.16,22.15-3.12-6.03-7.82-15.64-10.86-21.81-3.77-7.2-7.27-14.54-10.24-22.1h0Z" style="fill:#37474f;"></path></g></g><g><path d="M165.2,293.76s-7.04-6.32-11.79-8.9c-4.75-2.58-9.24-4.34-9.53-4.48-.28-.15-3.74-4.41-5.53-6.16-1.79-1.75-7.54-4.9-8.02-5.13-.48-.23,3.02,5.72,4.31,7.16,1.29,1.44,7.49,5.66,7.49,5.66,0,0-7.81-.08-9.43-.38-1.62-.3-9.37-3.43-11.4-3.98-1.1-.3-4.68-2.21-5.23-2.36-.55-.15,3.26,3.39,5.3,4.53,2.04,1.15,5.71,2.59,5.71,2.59,0,0-7.28-.34-9.58-1.68-2.3-1.34-9.52-6.66-15.46-8.76-5.94-2.11-22.08-3.32-20.68-1.86,1.41,1.46,15.37,15.63,22.39,19.02,7.03,3.39,18.3,1.06,21.78,.84s14.7-2.65,16.97-2.52c0,0-.7,.4-3.46,2.22-2.76,1.82-6.69,4.14-6.26,4.53,.43,.39,5.19,3.19,8.5,3.18,3.31-.01,5.89-9.37,6.81-10.07,.92-.69,6.34,.89,7.58,1.69,1.24,.81,12.61,8.92,12.61,8.92l-3.1-4.06Z" style="fill:#455a64;"></path><g><path d="M87.68,272.16c7.06,2.02,14.09,3.63,20.4,7.52,3.16,1.63,6.25,3.73,9.73,4.55,3.56,.47,7.23,.42,10.83,.5-3.63,.22-7.25,.39-10.91,.04-1.86-.25-3.49-1.17-5.15-1.94-3.26-1.59-6.4-3.44-9.59-5.15-4.93-2.17-10.26-3.6-15.31-5.52h0Z" style="fill:#37474f;"></path><path d="M137.58,293.13c2.09-2.5,4.61-4.7,7.62-6.01-2.48,2.13-4.87,4.22-7.62,6.01h0Z" style="fill:#37474f;"></path><path d="M133.36,272.46c1.41,1.45,2.65,3.2,4.17,4.47,1.64,1.25,3.25,2.55,4.74,4.01-1.82-1.02-3.5-2.22-5.16-3.46-1.65-1.41-2.72-3.18-3.75-5.03h0Z" style="fill:#37474f;"></path></g></g><g><path d="M308.95,113.94s-9.3-1.73-14.7-1.45c-5.4,.28-10.15,1.12-10.47,1.14-.32,.02-5.49-1.82-7.93-2.37-2.44-.56-8.99-.25-9.52-.2-.54,.05,5.56,3.31,7.41,3.86,1.85,.55,9.35,.92,9.35,.92,0,0-6.7,4-8.25,4.59-1.54,.59-9.78,1.96-11.81,2.54-1.09,.32-5.14,.55-5.69,.71-.55,.16,4.55,1.19,6.89,1.11,2.34-.09,6.23-.76,6.23-.76,0,0-6.39,3.5-9.05,3.56-2.66,.06-11.59-.72-17.76,.57-6.17,1.3-20.58,8.67-18.62,9.19,1.96,.51,21.26,5.34,29.02,4.57,7.76-.77,16.18-8.63,19.02-10.63,2.85-2,11.16-9.92,13.18-11,0,0-.39,.7-1.8,3.69-1.41,2.99-3.56,7.02-2.98,7.13,.57,.11,6.09,.02,8.92-1.72,2.82-1.74,.14-11.07,.56-12.14,.42-1.07,5.87-2.55,7.35-2.51,1.48,.04,15.41,1.05,15.41,1.05l-4.77-1.85Z" style="fill:#455a64;"></path><g><path d="M231.52,135.89c7.08-1.95,13.91-4.25,21.33-4.21,3.55-.26,7.27-.07,10.68-1.19,3.29-1.45,6.39-3.41,9.5-5.22-2.98,2.07-5.98,4.11-9.29,5.71-1.72,.75-3.59,.82-5.41,1.03-3.61,.34-7.26,.4-10.87,.61-5.34,.71-10.64,2.27-15.94,3.27h0Z" style="fill:#37474f;"></path><path d="M285.04,127.78c.48-3.22,1.49-6.41,3.37-9.1-1.01,3.11-1.96,6.14-3.37,9.1h0Z" style="fill:#37474f;"></path><path d="M270.67,112.35c1.95,.5,3.93,1.35,5.89,1.64,2.06,.21,4.11,.48,6.13,.96-2.08,.07-4.15-.07-6.2-.26-2.14-.34-3.98-1.3-5.82-2.34h0Z" style="fill:#37474f;"></path></g></g></g></g><g id="freepik--Sprouts--inject-103"><g><g><g><path d="M264.3,278.77c6.81,5.74,16.21,4.65,24.51,4.48,25.22-.43,55.74-5.75,76.04,13.51l-.36,.57c-16.14-6.31-32.97-7.07-49.95-9.48-8.53-.87-17.11-.88-25.84-1.18-8.47-.67-18.45-.55-24.84-7.4l.44-.5h0Z" style="fill:#FFC727;"></path><path d="M264.3,278.77c6.81,5.74,16.21,4.65,24.51,4.48,25.22-.43,55.74-5.75,76.04,13.51l-.36,.57c-16.14-6.31-32.97-7.07-49.95-9.48-8.53-.87-17.11-.88-25.84-1.18-8.47-.67-18.45-.55-24.84-7.4l.44-.5h0Z" style="fill:#fff; opacity:.8;"></path></g><g><path d="M252.34,274.72c-1.44,4.79,4.95,5.51,8.17,6.27,3.21,.77,5.41,3.95,7.7,2.29,2.29-1.66,1.08-6.74-5.22-9.54-6.3-2.8-9.9-1.47-10.64,.98Z" style="fill:#FFC727;"></path><path d="M259.75,278.85c-.31,.9-2.05,1.12-3.87,.48-1.82-.64-3.05-1.88-2.73-2.79,.31-.9,2.05-1.12,3.87-.48,1.82,.64,3.05,1.88,2.73,2.79Z" style="fill:#fff; opacity:.4;"></path></g></g><g><g><path d="M383.97,280.4c-7.81-4.57-16.85-2-24.99-.51-24.75,4.45-53.77,14.55-77.45-1.18l.24-.62c17.1,3.64,33.82,1.71,51,1.38,8.56-.5,17.02-1.86,25.66-2.96,8.47-.69,18.27-2.4,25.88,3.33l-.34,.56h0Z" style="fill:#FFC727;"></path><path d="M383.97,280.4c-7.81-4.57-16.85-2-24.99-.51-24.75,4.45-53.77,14.55-77.45-1.18l.24-.62c17.1,3.64,33.82,1.71,51,1.38,8.56-.5,17.02-1.86,25.66-2.96,8.47-.69,18.27-2.4,25.88,3.33l-.34,.56h0Z" style="fill:#fff; opacity:.8;"></path></g><g><path d="M393.29,279.92c-.15-5-6.44-3.65-9.73-3.36-3.29,.29-6.38-2.03-8.03,.27-1.64,2.3,1.12,6.73,7.97,7.39,6.86,.66,9.86-1.74,9.79-4.3Z" style="fill:#FFC727;"></path><path d="M384.95,278.35c.01-.96,1.59-1.71,3.52-1.68,1.93,.03,3.49,.82,3.47,1.78-.01,.96-1.59,1.71-3.52,1.68-1.93-.03-3.49-.82-3.47-1.78Z" style="fill:#fff; opacity:.4;"></path></g></g><g><g><path d="M393.82,253.49c-7.02-5.71-16.35-4.55-24.62-4.31-25.14,.62-55.37,6.16-76.36-12.99l.33-.58c16.35,6.21,33.16,6.85,50.19,9.15,8.54,.81,17.1,.76,25.81,1,8.48,.61,18.42,.42,25.07,7.24l-.42,.5h0Z" style="fill:#FFC727;"></path><path d="M393.82,253.49c-7.02-5.71-16.35-4.55-24.62-4.31-25.14,.62-55.37,6.16-76.36-12.99l.33-.58c16.35,6.21,33.16,6.85,50.19,9.15,8.54,.81,17.1,.76,25.81,1,8.48,.61,18.42,.42,25.07,7.24l-.42,.5h0Z" style="fill:#fff; opacity:.8;"></path></g><g><path d="M403.11,254.44c.62-4.96-5.81-4.59-9.1-4.81-3.3-.22-6-2.98-7.97-.96-1.97,2.02,.07,6.82,6.75,8.52,6.68,1.7,10.01-.22,10.33-2.75Z" style="fill:#FFC727;"></path><path d="M395.11,251.61c.16-.94,1.83-1.45,3.73-1.13,1.9,.32,3.32,1.34,3.16,2.29-.16,.94-1.83,1.45-3.73,1.13-1.9-.32-3.32-1.34-3.16-2.29Z" style="fill:#fff; opacity:.4;"></path></g></g><g><g><path d="M327.78,195.48c-9.39,18.02-19.38,35.79-34.8,48.32-10.64,5.99-24.54,6.48-36.77,9.73l-.42-.53c2.95-2.69,6.69-4.46,10.45-6.03,7.26-3.09,15.53-5.37,22.69-8.51,10.06-5.68,17.18-15.47,24.5-24.27,4.9-6.1,9.67-12.35,13.81-19.13l.53,.42h0Z" style="fill:#FFC727;"></path><path d="M327.78,195.48c-9.39,18.02-19.38,35.79-34.8,48.32-10.64,5.99-24.54,6.48-36.77,9.73l-.42-.53c2.95-2.69,6.69-4.46,10.45-6.03,7.26-3.09,15.53-5.37,22.69-8.51,10.06-5.68,17.18-15.47,24.5-24.27,4.9-6.1,9.67-12.35,13.81-19.13l.53,.42h0Z" style="fill:#fff; opacity:.7;"></path></g><g><path d="M330.54,185.77c-4.77-1.52-5.58,4.87-6.4,8.07s-4.03,5.35-2.4,7.66c1.63,2.31,6.72,1.18,9.62-5.07,2.89-6.25,1.62-9.88-.81-10.66Z" style="fill:#FFC727;"></path><path d="M326.29,193.11c-.9-.33-1.09-2.06-.42-3.88,.66-1.81,1.93-3.02,2.83-2.69,.9,.33,1.09,2.06,.42,3.88-.66,1.81-1.93,3.02-2.83,2.69Z" style="fill:#fff; opacity:.4;"></path></g></g><g><g><path d="M320.46,263.22c-6,3.91-12.6,13.03-17.51,18.56-9.32,10.62-19.55,21.9-32.96,26.52-11.15,3.08-22.98,4.7-34.56,2.41v-.68c10.09-2.43,19.94-5.24,29.87-7.82,5.75-1.27,11.31-3.18,16.36-6.66,9.94-6.42,19.46-16.83,28.3-25.21,3.15-2.9,6.34-5.91,10.23-7.75l.27,.63h0Z" style="fill:#FFC727;"></path><path d="M320.46,263.22c-6,3.91-12.6,13.03-17.51,18.56-9.32,10.62-19.55,21.9-32.96,26.52-11.15,3.08-22.98,4.7-34.56,2.41v-.68c10.09-2.43,19.94-5.24,29.87-7.82,5.75-1.27,11.31-3.18,16.36-6.66,9.94-6.42,19.46-16.83,28.3-25.21,3.15-2.9,6.34-5.91,10.23-7.75l.27,.63h0Z" style="fill:#fff; opacity:.7;"></path></g><g><path d="M223.85,317.47c2.51,4.33,7.41,.15,10.16-1.67,2.76-1.82,6.58-1.25,6.93-4.06,.35-2.8-4.18-5.39-10.53-2.71-6.35,2.68-7.84,6.22-6.56,8.44Z" style="fill:#FFC727;"></path><path d="M231.93,314.88c.44,.85-.58,2.26-2.29,3.16-1.71,.9-3.46,.94-3.9,.09-.44-.85,.58-2.26,2.29-3.16,1.71-.9,3.46-.94,3.9-.09Z" style="fill:#fff; opacity:.4;"></path></g></g><g><g><path d="M252.17,313.48c26.55-9.79,53.55-19.03,81.97-20.82,17.25,.99,33.25,8.41,49.84,12.59v.68c-5.7,.59-11.46-.04-17.07-.85-10.88-1.51-22.17-4.27-32.99-5.68-16.32-.91-33.01,3.26-49.03,6.5-10.91,2.35-21.82,4.89-32.49,8.23l-.22-.65h0Z" style="fill:#FFC727;"></path><path d="M252.17,313.48c26.55-9.79,53.55-19.03,81.97-20.82,17.25,.99,33.25,8.41,49.84,12.59v.68c-5.7,.59-11.46-.04-17.07-.85-10.88-1.51-22.17-4.27-32.99-5.68-16.32-.91-33.01,3.26-49.03,6.5-10.91,2.35-21.82,4.89-32.49,8.23l-.22-.65h0Z" style="fill:#fff; opacity:.7;"></path></g><g><path d="M242.79,318.24c2.51,4.33,7.4,.15,10.16-1.67,2.76-1.82,6.58-1.25,6.93-4.06,.35-2.8-4.18-5.39-10.53-2.71-6.35,2.68-7.84,6.22-6.56,8.44Z" style="fill:#FFC727;"></path><path d="M250.88,315.66c.44,.85-.58,2.26-2.29,3.16s-3.46,.94-3.9,.09c-.44-.85,.58-2.26,2.29-3.16,1.71-.9,3.46-.94,3.9-.09Z" style="fill:#fff; opacity:.4;"></path></g></g><g><g><path d="M367.9,245.69c-17.52,6.27-35.39,12.46-52.04,20.86-3.34,1.95-7.75,3.98-9.86,7.27,1.83,1.29,4.77,2.16,7.62,2.62,8.84,1.62,18.37,1.71,27.81,3.61l.02,.68c-9.29,1.85-18.53,3.29-28.42,2.49-4.11-.59-8.86-1.1-11.98-5.44-2.78-3.95-.48-8.9,2.81-10.91,11.22-7.36,24.26-10.71,36.64-14.73,9.03-2.59,18.12-4.92,27.22-7.11l.18,.66h0Z" style="fill:#FFC727;"></path><path d="M367.9,245.69c-17.52,6.27-35.39,12.46-52.04,20.86-3.34,1.95-7.75,3.98-9.86,7.27,1.83,1.29,4.77,2.16,7.62,2.62,8.84,1.62,18.37,1.71,27.81,3.61l.02,.68c-9.29,1.85-18.53,3.29-28.42,2.49-4.11-.59-8.86-1.1-11.98-5.44-2.78-3.95-.48-8.9,2.81-10.91,11.22-7.36,24.26-10.71,36.64-14.73,9.03-2.59,18.12-4.92,27.22-7.11l.18,.66h0Z" style="fill:#fff; opacity:.7;"></path></g><g><path d="M371.2,239.91c-3.14-3.9-7.34,.98-9.79,3.19-2.45,2.22-6.31,2.23-6.24,5.06,.08,2.82,4.95,4.7,10.82,1.08,5.87-3.61,6.81-7.34,5.21-9.33Z" style="fill:#FFC727;"></path><path d="M363.6,243.69c-.57-.77,.23-2.32,1.79-3.47,1.55-1.15,3.27-1.45,3.84-.68,.57,.77-.23,2.32-1.79,3.47-1.55,1.15-3.27,1.45-3.84,.68Z" style="fill:#fff; opacity:.4;"></path></g></g><g><g><path d="M274.01,252.71c11.19,1.46,18.64,13.35,28.19,17.92,4.74,1.55,10.66,.68,15.74,.27,13.89-1.31,27.5-4.97,41.5-5.71,8.66-.21,17.09,4.38,24.64,7.99,5,2.34,9.79,5.34,15.2,6.21l.04,.68c-11.28,1.39-21.86-4.89-32.48-6.93-10.48-2.08-21.35,.27-32.01,.88-11.28,.61-22.79,3.31-33.86-.23-5.41-3.02-9.06-7.6-13.2-11.53-4.04-3.96-8.48-7.67-13.87-8.88l.11-.68h0Z" style="fill:#FFC727;"></path><path d="M274.01,252.71c11.19,1.46,18.64,13.35,28.19,17.92,4.74,1.55,10.66,.68,15.74,.27,13.89-1.31,27.5-4.97,41.5-5.71,8.66-.21,17.09,4.38,24.64,7.99,5,2.34,9.79,5.34,15.2,6.21l.04,.68c-11.28,1.39-21.86-4.89-32.48-6.93-10.48-2.08-21.35,.27-32.01,.88-11.28,.61-22.79,3.31-33.86-.23-5.41-3.02-9.06-7.6-13.2-11.53-4.04-3.96-8.48-7.67-13.87-8.88l.11-.68h0Z" style="fill:#fff; opacity:.8;"></path></g><g><path d="M264.88,251.01c-.69,4.96,5.74,4.68,9.04,4.94,3.29,.26,5.96,3.07,7.96,1.07,2-1.99,.02-6.82-6.63-8.62-6.65-1.79-10.01,.07-10.37,2.61Z" style="fill:#FFC727;"></path><path d="M272.84,253.96c-.17,.94-1.85,1.42-3.75,1.07-1.9-.35-3.3-1.39-3.13-2.33,.17-.94,1.85-1.42,3.75-1.07,1.9,.35,3.3,1.39,3.13,2.33Z" style="fill:#fff; opacity:.4;"></path></g></g><g><g><path d="M287,269.06c6.3,9.08,14.34,17.34,22.75,24.03,4.25,3.19,8.79,6.35,13.41,6.18,18.31-.22,35.84-11.12,54.78-7.3,8.08,2.31,15.3,7.36,21.39,13.46l-.35,.56c-9.72-4.66-19.59-9.52-29.06-8.07-9.91,1.21-20.29,2.99-30.71,4.58-6.52,.8-13.68,2.36-20.46,.35-9.09-3.73-16-11.86-22.44-19.49-3.53-4.47-7.05-8.86-9.88-14.03l.56-.27h0Z" style="fill:#FFC727;"></path><path d="M287,269.06c6.3,9.08,14.34,17.34,22.75,24.03,4.25,3.19,8.79,6.35,13.41,6.18,18.31-.22,35.84-11.12,54.78-7.3,8.08,2.31,15.3,7.36,21.39,13.46l-.35,.56c-9.72-4.66-19.59-9.52-29.06-8.07-9.91,1.21-20.29,2.99-30.71,4.58-6.52,.8-13.68,2.36-20.46,.35-9.09-3.73-16-11.86-22.44-19.49-3.53-4.47-7.05-8.86-9.88-14.03l.56-.27h0Z" style="fill:#fff; opacity:.8;"></path></g><g><path d="M277.18,264.52c-2.27,4.46,3.9,6.29,6.93,7.62,3.03,1.32,4.63,4.84,7.17,3.61,2.54-1.23,2.25-6.44-3.45-10.31-5.7-3.87-9.49-3.2-10.65-.92Z" style="fill:#FFC727;"></path><path d="M283.74,269.9c-.47,.83-2.21,.74-3.9-.21-1.68-.95-2.67-2.39-2.2-3.22,.47-.83,2.21-.74,3.9,.21,1.68,.95,2.67,2.39,2.2,3.22Z" style="fill:#fff; opacity:.4;"></path></g></g><g><g><path d="M352.77,320.48c-8.04-2.02-13.17-14.28-19.97-19.33-3.39-1.79-7.68-1.21-11.35-1.06-10.04,.62-19.94,3.6-30.06,3.64-6.25-.22-12.24-5.24-17.62-9.22-3.56-2.59-6.95-5.83-10.84-6.97v-.68c8.15-.82,15.66,5.98,23.27,8.55,7.52,2.6,15.41,.79,23.11,.71,8.15-.05,16.51-2.17,24.43,1.92,3.84,3.29,6.38,8.05,9.29,12.19,2.83,4.17,5.96,8.09,9.83,9.58l-.09,.67h0Z" style="fill:#FFC727;"></path><path d="M352.77,320.48c-8.04-2.02-13.17-14.28-19.97-19.33-3.39-1.79-7.68-1.21-11.35-1.06-10.04,.62-19.94,3.6-30.06,3.64-6.25-.22-12.24-5.24-17.62-9.22-3.56-2.59-6.95-5.83-10.84-6.97v-.68c8.15-.82,15.66,5.98,23.27,8.55,7.52,2.6,15.41,.79,23.11,.71,8.15-.05,16.51-2.17,24.43,1.92,3.84,3.29,6.38,8.05,9.29,12.19,2.83,4.17,5.96,8.09,9.83,9.58l-.09,.67h0Z" style="fill:#fff; opacity:.8;"></path></g><g><path d="M364.61,322.12c.66-4.96-5.77-4.65-9.06-4.89-3.29-.25-5.97-3.03-7.96-1.03-1.99,2,.01,6.82,6.67,8.58,6.66,1.76,10.01-.13,10.35-2.66Z" style="fill:#FFC727;"></path><path d="M356.64,319.22c.17-.94,1.84-1.43,3.74-1.09,1.9,.34,3.31,1.37,3.14,2.31-.17,.94-1.84,1.43-3.74,1.09-1.9-.34-3.31-1.37-3.14-2.31Z" style="fill:#fff; opacity:.4;"></path></g></g><g><g><path d="M364.16,272.33c-15.2,13.22-30.88,25.98-49.83,31.91-12.14,1.64-25.41-2.99-38.08-4.47l-.21-.65c3.73-1.41,7.87-1.67,11.97-1.75,7.93-.2,16.53,.73,24.38,.44,11.48-1.57,21.64-8.01,31.65-13.46,6.76-3.85,13.46-7.88,19.76-12.62l.35,.58h0Z" style="fill:#FFC727;"></path><path d="M364.16,272.33c-15.2,13.22-30.88,25.98-49.83,31.91-12.14,1.64-25.41-2.99-38.08-4.47l-.21-.65c3.73-1.41,7.87-1.67,11.97-1.75,7.93-.2,16.53,.73,24.38,.44,11.48-1.57,21.64-8.01,31.65-13.46,6.76-3.85,13.46-7.88,19.76-12.62l.35,.58h0Z" style="fill:#fff; opacity:.7;"></path></g><g><path d="M373.26,265.03c-3.5-3.57-7.21,1.69-9.43,4.13-2.22,2.44-6.07,2.84-5.71,5.64,.35,2.8,5.39,4.19,10.87,.02,5.48-4.17,6.06-7.97,4.27-9.8Z" style="fill:#FFC727;"></path><path d="M366.06,269.53c-.64-.71,0-2.33,1.44-3.62,1.44-1.29,3.12-1.76,3.76-1.05,.64,.71,0,2.33-1.44,3.62-1.44,1.29-3.12,1.76-3.76,1.05Z" style="fill:#fff; opacity:.4;"></path></g></g><g><g><path d="M344.92,275.65c-9.04-.24-15.73,6.36-22.14,11.59-19.55,15.82-40.12,38.64-68.45,36.26l-.09-.66c16.74-5.04,30.46-14.79,45.36-23.35,7.26-4.56,14.02-9.83,21.07-14.95,7.09-4.68,14.85-10.9,24.28-9.55l-.03,.65h0Z" style="fill:#FFC727;"></path><path d="M344.92,275.65c-9.04-.24-15.73,6.36-22.14,11.59-19.55,15.82-40.12,38.64-68.45,36.26l-.09-.66c16.74-5.04,30.46-14.79,45.36-23.35,7.26-4.56,14.02-9.83,21.07-14.95,7.09-4.68,14.85-10.9,24.28-9.55l-.03,.65h0Z" style="fill:#fff; opacity:.8;"></path></g><g><path d="M352.86,270.74c-2.54-4.31-7.41-.1-10.15,1.74-2.74,1.84-6.57,1.3-6.9,4.1-.33,2.81,4.22,5.36,10.55,2.64,6.33-2.72,7.8-6.28,6.51-8.48Z" style="fill:#FFC727;"></path><path d="M344.79,273.38c-.45-.84,.57-2.26,2.27-3.17,1.7-.91,3.45-.96,3.9-.12,.45,.84-.57,2.26-2.27,3.17-1.7,.91-3.45,.96-3.9,.12Z" style="fill:#fff; opacity:.4;"></path></g></g></g></g><g id="freepik--Tomatoes--inject-103"><g><g><path d="M325.02,98.43c22.1,17.18,26.12,49.05,8.94,71.15-17.2,22.13-49.08,26.09-71.18,8.92l62.24-80.06Z" style="fill:#FFC727;"></path><path d="M320.96,103.65c6.44,5.01,9.32,11.85,12.13,18.93,2.68,6.78,5.46,13.73,4.63,20.97-.89,7.75-2.35,16.54-7.48,23.14-5,6.44-13.84,9.67-20.9,12.48-8.22,3.27-16.59,5.59-25.27,3.65-6.15-1.38-11.91-5.43-17.22-9.55l54.12-69.62Z" style="fill:#fff; opacity:.2;"></path><path d="M316.7,109.26c5.97,4.64,6.22,11.39,8.47,18.07,2.89,8.58,5.28,14.87,1.57,23.41-1.21,2.79-5.47,5.7-7.42,8.21-4.16,5.35-6.28,8.27-12.14,10.64-7.04,2.85-12.3,2.94-19.74,1.24-5.11-1.17-11.87,.44-16.28-2.98l45.54-58.58Z" style="fill:#FFC727;"></path><g style="opacity:.4;"><path d="M285.21,149.65s-3.11,9.17-.1,10.89c3.01,1.72,6.82-1.32,10.46-2.01,3.64-.69,5.04,4.96,9.08,3.75s2.98-9.15,4.52-11.94c1.55-2.79,8.88-2.26,10.79-6.77,1.91-4.51-4.58-7.08-5.65-9.15-1.08-2.08,3.45-6.83,.18-10.61-3.27-3.78-11.14,2.51-11.14,2.51l-18.14,23.34Z" style="fill:#fff;"></path><path d="M282.04,158.04s.44,.62-.64,3.73c-.26,.78-.41,1.62-.71,2.32-.35,.68-.82,1.24-1.3,1.69-.93,.9-1.96,1.3-1.96,1.3l-.3-.15s-.3-1.06-.13-2.35c.07-.65,.24-1.36,.58-2.05,.39-.66,.96-1.29,1.44-1.96,1.85-2.72,2.73-2.68,2.73-2.68l.3,.15Z" style="fill:#fff;"></path><path d="M294.19,162.29s.62,.44,.65,3.73c.02,.82,.15,1.66,.11,2.43-.1,.76-.36,1.45-.66,2.02-.58,1.16-1.41,1.88-1.41,1.88l-.33-.04s-.64-.9-.91-2.17c-.15-.63-.23-1.36-.14-2.12,.14-.75,.48-1.53,.7-2.33,.83-3.18,1.68-3.44,1.68-3.44l.33,.04Z" style="fill:#fff;"></path><path d="M298.59,162.15s.74,.16,2.06,3.17c.34,.75,.79,1.47,1.05,2.19,.2,.74,.24,1.47,.19,2.12-.07,1.29-.56,2.28-.56,2.28l-.32,.09s-.94-.58-1.69-1.64c-.39-.53-.75-1.16-.96-1.9-.16-.75-.16-1.6-.27-2.42-.48-3.26,.19-3.82,.19-3.82l.32-.09Z" style="fill:#fff;"></path><path d="M311.87,151.93s.74-.18,3.24,1.96c.64,.53,1.35,.98,1.9,1.51,.51,.57,.85,1.22,1.09,1.83,.5,1.2,.49,2.3,.49,2.3l-.25,.22s-1.1-.11-2.23-.74c-.58-.3-1.18-.72-1.7-1.29-.47-.6-.85-1.37-1.3-2.05-1.86-2.72-1.49-3.52-1.49-3.52l.25-.22Z" style="fill:#fff;"></path><path d="M316.22,132.08s.43-.63,3.72-.7c.82-.03,1.66-.18,2.43-.14,.76,.09,1.45,.34,2.03,.63,1.17,.56,1.9,1.39,1.9,1.39l-.04,.33s-.89,.65-2.16,.94c-.63,.16-1.36,.25-2.12,.17-.75-.13-1.54-.45-2.34-.66-3.2-.79-3.46-1.63-3.46-1.63l.04-.33Z" style="fill:#fff;"></path><path d="M310.65,120.58s-.24-.72,1.71-3.38c.48-.67,.87-1.42,1.37-2.01,.53-.55,1.15-.94,1.74-1.23,1.16-.59,2.26-.66,2.26-.66l.24,.23s-.03,1.1-.57,2.28c-.26,.6-.63,1.23-1.16,1.79-.56,.52-1.3,.94-1.95,1.45-2.57,2.05-3.4,1.75-3.4,1.75l-.24-.23Z" style="fill:#fff;"></path></g></g><g><path d="M184.69,265.69c10,26.14-3.08,55.48-29.22,65.48-26.18,10.01-55.5-3.11-65.5-29.26l94.72-36.23Z" style="fill:#FFC727;"></path><path d="M178.51,268.05c2.92,7.62,1.83,14.97,.56,22.48-1.21,7.19-2.45,14.57-6.91,20.33-4.78,6.17-10.58,12.93-18.39,15.92-7.61,2.91-16.85,1.1-24.34-.16-8.73-1.47-17.08-3.81-23.5-9.97-4.55-4.36-7.38-10.82-9.78-17.09l82.36-31.5Z" style="fill:#fff; opacity:.2;"></path><path d="M171.96,270.64c2.7,7.07-.58,12.97-2.12,19.84-1.98,8.84-3.19,15.46-10.78,20.83-2.48,1.76-7.63,2.04-10.6,3.17-6.33,2.42-9.66,3.82-15.9,2.81-7.49-1.21-12.05-3.86-17.52-9.17-3.76-3.65-10.38-5.77-12.38-10.98l69.3-26.51Z" style="fill:#FFC727;"></path><g style="opacity:.4;"><path d="M124.1,288.86s-7.41,6.23-5.73,9.26c1.68,3.03,6.52,2.4,9.98,3.7,3.47,1.3,1.75,6.85,5.82,7.91,4.08,1.06,7.29-6.29,10.06-7.87,2.77-1.58,8.76,2.67,12.74-.2s-.25-8.42-.09-10.76c.16-2.33,6.49-4.06,5.66-8.98-.84-4.93-10.83-3.63-10.83-3.63l-27.61,10.56Z" style="fill:#fff;"></path><path d="M117.04,294.4s.06,.76-2.48,2.86c-.63,.54-1.19,1.17-1.81,1.62-.65,.4-1.35,.64-1.99,.77-1.26,.29-2.35,.09-2.35,.09l-.18-.28s.3-1.06,1.1-2.08c.4-.52,.91-1.04,1.55-1.45,.67-.37,1.49-.6,2.24-.93,2.99-1.37,3.72-.88,3.72-.88l.18,.28Z" style="fill:#fff;"></path><path d="M125.23,304.33s.31,.69-1.38,3.52c-.41,.72-.73,1.5-1.17,2.13-.48,.6-1.06,1.05-1.61,1.39-1.09,.7-2.18,.87-2.18,.87l-.26-.21s-.08-1.1,.34-2.33c.2-.62,.51-1.29,.98-1.89,.51-.57,1.2-1.07,1.8-1.63,2.36-2.29,3.21-2.07,3.21-2.07l.26,.21Z" style="fill:#fff;"></path><path d="M129.07,306.49s.55,.52,.11,3.78c-.1,.82-.08,1.67-.24,2.42-.21,.74-.56,1.38-.94,1.91-.73,1.07-1.67,1.66-1.67,1.66l-.32-.09s-.5-.98-.59-2.28c-.06-.65-.04-1.38,.16-2.12,.25-.73,.69-1.45,1.02-2.21,1.28-3.03,2.15-3.17,2.15-3.17l.32,.09Z" style="fill:#fff;"></path><path d="M145.72,304.63s.73,.23,1.76,3.35c.27,.78,.65,1.54,.84,2.28,.14,.75,.1,1.49,0,2.13-.19,1.28-.77,2.22-.77,2.22l-.33,.06s-.88-.66-1.53-1.79c-.34-.56-.64-1.23-.78-1.98-.09-.76-.02-1.61-.05-2.43-.18-3.29,.55-3.79,.55-3.79l.33-.06Z" style="fill:#fff;"></path><path d="M159.73,289.91s.69-.32,3.54,1.33c.72,.4,1.51,.71,2.15,1.14,.6,.47,1.06,1.04,1.41,1.59,.71,1.08,.91,2.17,.91,2.17l-.2,.27s-1.1,.09-2.33-.31c-.62-.19-1.29-.49-1.9-.95-.58-.5-1.08-1.19-1.66-1.78-2.33-2.33-2.12-3.18-2.12-3.18l.2-.27Z" style="fill:#fff;"></path><path d="M160.92,277.18s.17-.74,3.21-2c.76-.33,1.48-.77,2.21-1.01,.74-.19,1.47-.21,2.12-.15,1.29,.1,2.27,.6,2.27,.6l.09,.32s-.6,.93-1.67,1.66c-.53,.38-1.18,.73-1.91,.93-.75,.15-1.6,.14-2.42,.23-3.26,.42-3.82-.26-3.82-.26l-.09-.32Z" style="fill:#fff;"></path></g></g><g><path d="M209.73,213.78c-21.17,18.3-53.22,16-71.52-5.17-18.33-21.2-15.97-53.24,5.2-71.55l66.32,76.72Z" style="fill:#FFC727;"></path><path d="M205.41,208.78c-6.17,5.34-13.45,6.82-20.94,8.18-7.17,1.31-14.54,2.66-21.47,.43-7.43-2.39-15.76-5.54-21.23-11.87-5.33-6.17-6.78-15.47-8.14-22.94-1.59-8.71-2.23-17.36,1.37-25.5,2.55-5.76,7.66-10.62,12.74-15.01l57.67,66.71Z" style="fill:#fff; opacity:.2;"></path><path d="M200.74,203.5c-5.72,4.95-12.39,3.87-19.38,4.76-8.98,1.15-15.62,2.26-23.26-3.04-2.5-1.74-4.52-6.48-6.6-8.89-4.43-5.13-6.88-7.78-8.06-13.99-1.41-7.46-.48-12.64,2.65-19.6,2.15-4.78,1.89-11.72,6.11-15.38l48.53,56.13Z" style="fill:#FFC727;"></path><g style="opacity:.4;"><path d="M167.31,164.71s-8.38-4.84-10.66-2.23c-2.27,2.61-.04,6.95-.08,10.65-.04,3.7-5.85,3.98-5.46,8.17,.39,4.2,8.39,4.71,10.82,6.78,2.43,2.06,.47,9.15,4.53,11.91,4.05,2.76,7.84-3.1,10.08-3.75,2.25-.65,6.03,4.72,10.37,2.26,4.35-2.46-.28-11.42-.28-11.42l-19.33-22.36Z" style="fill:#fff;"></path><path d="M159.7,159.96s-.69,.31-3.53-1.35c-.72-.41-1.51-.72-2.14-1.15-.6-.48-1.06-1.05-1.4-1.6-.7-1.09-.89-2.18-.89-2.18l.21-.26s1.1-.08,2.33,.33c.62,.2,1.29,.5,1.9,.97,.57,.51,1.07,1.19,1.64,1.79,2.31,2.35,2.09,3.2,2.09,3.2l-.21,.26Z" style="fill:#fff;"></path><path d="M153.15,171.03s-.55,.52-3.78-.09c-.81-.14-1.66-.18-2.4-.37-.72-.25-1.35-.64-1.86-1.04-1.03-.79-1.57-1.75-1.57-1.75l.11-.32s1.01-.45,2.3-.47c.65-.02,1.38,.04,2.11,.28,.71,.29,1.41,.77,2.15,1.14,2.96,1.44,3.04,2.32,3.04,2.32l-.11,.32Z" style="fill:#fff;"></path><path d="M152.43,175.38s-.3,.7-3.52,1.4c-.8,.19-1.6,.49-2.36,.6-.76,.06-1.49-.06-2.12-.23-1.25-.33-2.13-1-2.13-1l-.03-.33s.75-.81,1.94-1.33c.59-.28,1.29-.5,2.05-.57,.77-.01,1.6,.15,2.42,.21,3.29,.17,3.71,.94,3.71,.94l.03,.33Z" style="fill:#fff;"></path><path d="M159.85,190.4s.04,.76-2.55,2.79c-.64,.52-1.22,1.14-1.86,1.57-.66,.38-1.36,.6-2.01,.72-1.27,.25-2.35,.03-2.35,.03l-.17-.29s.32-1.06,1.16-2.05c.41-.51,.94-1.02,1.59-1.41,.68-.35,1.5-.56,2.27-.87,3.03-1.29,3.75-.78,3.75-.78l.17,.29Z" style="fill:#fff;"></path><path d="M178.46,198.56s.53,.54-.04,3.78c-.13,.81-.15,1.66-.34,2.41-.24,.73-.62,1.36-1.02,1.87-.78,1.04-1.73,1.59-1.73,1.59l-.32-.1s-.46-1-.5-2.3c-.03-.65,.02-1.38,.25-2.11,.28-.71,.75-1.42,1.11-2.16,1.4-2.98,2.27-3.08,2.27-3.08l.32,.1Z" style="fill:#fff;"></path><path d="M190.83,195.34s.75-.09,2.98,2.34c.57,.6,1.23,1.13,1.7,1.73,.43,.63,.7,1.32,.86,1.95,.35,1.25,.21,2.34,.21,2.34l-.27,.19s-1.08-.24-2.13-1c-.54-.37-1.08-.86-1.53-1.48-.4-.65-.67-1.46-1.04-2.2-1.51-2.92-1.05-3.68-1.05-3.68l.27-.19Z" style="fill:#fff;"></path></g></g></g></g><g id="freepik--Fish--inject-103"><g><g><path d="M128.29,271.69c-1.74-3.86,2.55-9.26,24.76-27.48,22.21-18.21,26.61-17.62,33.15-18.77,6.54-1.14,27.99-5.48,54.32,12.75,26.33,18.22,40.47,40.72,50.91,48.75,16.23,12.49,32.95,18.64,31.6,26.17-1.35,7.53-24.35,21.78-29.52,25.23s-15.66,16.15-20.53,15.1c-4.86-1.05-52.13-22.75-74.27-35.24-22.15-12.49-65.18-34.89-70.42-46.52Z" style="fill:#eb9481;"></path><path d="M281.72,348.83c-3.38,2.89-6.6,5.08-8.73,4.62-4.86-1.05-52.13-22.75-74.27-35.24-22.15-12.49-65.18-34.89-70.42-46.51,.35-10.02,19.8-4.9,34.41-3.59,14.61,1.31,30.99-.77,45.82,7.07,14.83,7.84,39.33,36.8,52.21,47.66,11.18,9.43,23.9,18.4,20.99,26Z" style="opacity:.1;"></path><g style="opacity:.4;"><path d="M228.94,231.38c.78,.38,1.58,.78,2.38,1.2-1.57-.13-3.26-.09-5.31-.02-3.97,.1-9.58,.68-13.59,.95-4.54,.37-9.09,.72-13.64,1-4.58,.23-9.15,.49-13.75,.11-1.59-.17-3.31-.33-4.76-1.13-2.78-1.6-2.95-3.95-1.9-6.29,.32-.12,.63-.23,.94-.32-.25,.53-.45,1.09-.6,1.67-.58,2.27,1.07,3.93,3.15,4.47,3.26,.74,6.69,.51,10.03,.43,11.32-.5,22.69-2.05,34.09-2.11,.99,0,1.97,.01,2.96,.05Z" style="fill:#fff;"></path><path d="M323.11,312.44c-6.51-5.96-13.45-11.45-20.74-16.34-2.36-1.55-4.76-3.03-7.24-4.39-1.44-.82-3.11-1.61-4.52-2.47-4-2.4-7.33-5.78-10.3-9.32-4.43-5.27-7.94-11.13-12.19-16.48-2.22-2.67-4.44-5.34-6.72-7.96,1.09,1.05,2.15,2.1,3.18,3.15,.29,.29,.58,.59,.87,.88,2.46,2.51,4.75,4.97,6.9,7.34,3.06,4.03,5.93,8.22,9.21,12.02,2.91,3.38,6.11,6.56,9.97,8.81,1,.59,1.99,1.06,2.98,1.58,.02,.01,.04,.02,.06,.03,5.77,4.17,11.46,7.59,16.22,10.63h0c4.1,3.17,8.03,6.54,11.79,10.09,.02,.05,.05,.11,.07,.16,.02,.05,.05,.11,.07,.17,.07,.19,.14,.39,.19,.58,.03,.09,.05,.19,.07,.28v.02c.02,.09,.04,.19,.06,.28,0,.01,0,.03,0,.05,.01,.08,.02,.16,.03,.24,0,.04,0,.07,.01,.11,0,.08,.01,.16,.01,.23,0,.1,0,.19,0,.29,0,0,0,.01,0,.02Z" style="fill:#fff;"></path><path d="M217.63,226.95c-3.37,.26-6.74,.51-10.11,.72-4.58,.23-9.15,.49-13.75,.11-1.59-.17-3.31-.33-4.76-1.14-.73-.42-1.27-.88-1.67-1.39,.35-.06,.73-.12,1.13-.19,.57,.52,1.31,.89,2.12,1.1,3.26,.74,6.69,.51,10.03,.43,4.13-.18,8.27-.5,12.41-.84,1.49,.33,3.02,.73,4.59,1.2Z" style="fill:#fff;"></path><path d="M318.78,319.56c-.29,.3-.59,.59-.91,.9-1.31-1.1-2.6-2.22-3.86-3.37-7.53-6.81-14.05-14.72-22.04-20.98-2.18-1.69-4.57-3.21-7.01-4.48-2.58-1.41-4.82-3.4-6.75-5.54-4.58-5.12-7.88-11.23-11.32-17.07-2.25-3.91-4.68-7.62-8.06-10.66-4.91-4.63-10.36-8.73-16.09-12.31-3.83-2.36-7.82-4.53-12.03-6.11-2.1-.77-4.26-1.42-6.45-1.67-4.44-.4-8.99,.04-13.44,.34-8.87,.68-18.23,1.58-27.11,1.79-2.27,.04-4.55,.02-6.85-.18-2.35-.21-4.98-.64-6.44-2.72-1.53-2.28-.29-4.82,1.26-6.96,.39-.23,.77-.46,1.14-.67-.92,1.31-1.72,2.67-2.14,4.21-.62,2.25,.96,3.93,3.03,4.5,1.02,.27,2.13,.4,3.24,.47,11.27,.35,22.47-1.4,33.77-1.91,4.56-.19,9.11-.44,13.67,.13,2.31,.35,4.49,1.1,6.59,1.96,6.29,2.64,12.12,6.24,17.72,10.1,4.64,3.26,9.22,6.68,13.24,10.71,2.41,2.45,4.3,5.39,6.12,8.26,5,7.79,9.96,17.84,18.51,22.11,3.34,1.71,6.37,3.97,9.21,6.39,6.86,5.99,12.67,12.96,19.21,19.24,1.24,1.19,2.5,2.37,3.78,3.52Z" style="fill:#fff;"></path><path d="M315.41,322.7c-.28,.25-.58,.5-.87,.74-1.63-1.62-3.3-3.21-5-4.76-5-4.54-10.39-8.65-16.09-12.26-4.72-2.99-9.77-5.72-14.74-8.28l-1.51-.79c-2.61-1.37-4.89-3.34-6.84-5.48-6.2-6.78-9.87-15.31-14.99-22.78-1.28-1.84-2.81-3.46-4.43-5.02-3.26-3.11-6.79-5.96-10.46-8.6-6.85-4.81-15.79-10.41-24.14-11.64-4.44-.43-9,.02-13.47,.32-8.93,.68-18.22,1.58-27.16,1.8-2.85,.04-5.74,.04-8.59-.39-1.17-.19-2.41-.49-3.39-1.19-3.46-2.33-1.93-5.79,.11-8.57,.48-.35,.95-.69,1.4-1.01-2.53,3.52-4.8,7.63,.45,9.36,3.24,.76,6.65,.53,9.98,.45,11.27-.49,22.59-2.03,33.94-2.11,2.28,0,4.57,.02,6.87,.36,2.3,.38,4.49,1.13,6.6,2,6.3,2.66,12.13,6.28,17.74,10.15,5.52,3.97,11.24,8.01,15.49,13.4,5.31,7.12,9.21,15.8,15.31,22.3,1.89,2.01,3.99,3.78,6.42,5.02,1.43,.72,3.12,1.58,4.54,2.33,7.08,3.68,13.94,7.85,20.18,12.86,4.51,3.59,8.72,7.56,12.66,11.78Z" style="fill:#fff;"></path><path d="M307.75,328.71c-.3,.22-.61,.45-.92,.67-4.89-4.91-10.13-9.48-15.74-13.51-6.38-4.6-13.26-8.44-20.25-12.03-.97-.51-2.14-1.08-3.04-1.65-7.78-5.11-12.11-13.77-16.74-21.5-2.26-3.87-4.57-7.72-7.95-10.7-3.31-3.03-6.93-5.74-10.68-8.23-5.64-3.7-11.6-7.01-17.94-9.33-2.12-.75-4.28-1.37-6.46-1.71-2.19-.31-4.45-.3-6.68-.27-11.28,.31-22.55,1.41-33.85,1.35-2.27-.02-4.55-.09-6.83-.36-2.33-.27-4.95-.74-6.39-2.81-1.26-1.91-.61-3.97,.54-5.85,.51-.41,1.01-.81,1.49-1.2-.76,1.14-1.4,2.32-1.76,3.64-.62,2.26,.94,3.91,3.01,4.52,1.02,.29,2.13,.44,3.23,.53,13.5,.72,27.01-1.36,40.57-1.05,2.29,.06,4.57,.12,6.83,.54,6.71,1.42,12.81,4.69,18.75,7.99,6.82,4.02,13.64,8.27,19.29,13.9,2.36,2.5,4.2,5.44,6.01,8.32,2.4,3.84,4.66,7.74,7.27,11.37,2.89,3.98,6.22,7.87,10.66,10.09,7.62,3.8,15.1,7.95,21.92,13.07,5.66,4.23,10.86,9.03,15.66,14.22Z" style="fill:#fff;"></path><path d="M300.25,333.92c-.32,.22-.64,.43-.95,.63-1.75-1.29-3.45-2.64-5.09-4.05-7.46-6.76-15.68-12.64-24.53-17.42-2.93-1.64-5.95-3.17-8.93-4.73-8.85-5.1-13.7-15.53-18.83-23.92-1.16-1.91-2.34-3.81-3.71-5.54-1.37-1.71-3-3.25-4.69-4.69-6.84-5.74-14.66-10.44-22.96-13.76-4.15-1.63-8.5-2.75-12.97-2.72-8.96-.03-17.94,.72-26.91,.94-6.77,.15-13.58,.52-20.33-.5-2.35-.33-5.08-1.58-5.39-4.22-.12-1.3,.21-2.49,.73-3.6,.46-.4,.95-.8,1.44-1.21-.29,.53-.55,1.06-.78,1.62-1.58,3.82,.42,5.82,4.19,6.29,2.17,.32,4.41,.37,6.64,.41,11.19,.06,22.44-.94,33.67-.98,4.51,.04,9.15-.09,13.54,1.12,8.69,2.54,16.68,7.01,24.2,11.95,3.75,2.53,7.47,5.23,10.47,8.65,1.49,1.75,2.76,3.64,3.98,5.53,4.83,7.42,8.82,15.7,15.86,21.27,1.74,1.38,3.74,2.26,5.7,3.27,6.04,3.09,11.95,6.45,17.49,10.39,4.6,3.25,8.92,6.99,13,10.85,.81,.77,1.67,1.49,2.5,2.23,.87,.74,1.75,1.47,2.65,2.19Z" style="fill:#fff;"></path><path d="M292.09,339.41c-.28,.22-.56,.46-.85,.71-2.75-2.04-5.39-4.24-7.92-6.51-5.13-4.46-10.65-8.44-16.47-11.95-3.9-2.32-7.88-4.49-11.92-6.57-.57-.3-1.76-.92-2.29-1.2-1.3-.72-2.52-1.59-3.64-2.55-7.02-6.1-11.02-14.76-15.82-22.49-1.19-1.92-2.43-3.82-3.92-5.46-7.04-7.29-19.51-13.85-29.08-17.15-4.28-1.49-8.73-2.37-13.27-2.29-13.56,.08-27.48,1.31-41.04,.73-2.9-.21-5.87-.27-8.62-1.37-1.68-.81-2.37-1.96-2.43-3.23,.31-.3,.63-.62,.97-.94-.22,1.33,.26,2.46,1.9,3.19,2.6,.93,5.48,.91,8.23,1.04,13.63,.28,27.34-1.09,41.02-.58,2.3,.09,4.63,.28,6.87,.8,10.36,2.4,28.67,11.59,36.21,19.08,3.2,3.37,5.45,7.41,7.88,11.31,2.37,3.85,4.75,7.73,7.59,11.23,2.11,2.59,4.46,4.97,7.32,6.67,.56,.34,.9,.5,1.45,.78,2.54,1.27,5.11,2.62,7.6,3.97,6.54,3.58,12.82,7.7,18.54,12.49,3.07,2.51,5.96,5.41,8.93,7.99,.91,.78,1.83,1.54,2.76,2.29Z" style="fill:#fff;"></path></g><g style="opacity:.2;"><path d="M208.55,323.52c-.89-.47-1.77-.93-2.63-1.38-5.71-7.04-10.94-14.51-17.31-20.95-3.59-3.55-7.59-6.91-12.39-8.62-2.87-.94-5.92-1.48-8.91-1.94-6.05-.91-12.19-1.43-18.31-1.78-.35-.02-.74-.05-1.15-.08-.78-.51-1.55-1.03-2.31-1.54,3.24,.1,6.47,.25,9.7,.49,7.2,.56,14.52,1.38,21.35,3.82,9.44,3.82,17.92,15.57,24.5,23.28,2.45,2.9,4.88,5.87,7.44,8.71Z" style="fill:#fff;"></path><path d="M280.54,349.81c-.43,.35-.85,.68-1.27,.99-2.53-1.43-5.31-2.4-8.07-3.37-12.66-4.25-25.84-7.56-37.48-14.35-5.9-3.34-10.82-8.14-15.16-13.29-7.22-8.46-13.46-17.79-21.28-25.7-3.88-3.85-8.22-7.51-13.42-9.37-3.1-1.02-6.42-1.62-9.66-2.12-5.46-.83-10.99-1.35-16.51-1.73-6.06-.45-15.64-.78-22.15-1.05-.39-.33-.77-.66-1.14-.98,8.92,0,17.84,.08,26.73,.73,7.79,.61,15.71,1.49,23.12,4.11,10.25,4.13,19.4,16.83,26.53,25.19,7.07,8.4,14.04,17.35,23.76,22.78,9.57,5.39,20.48,8.55,30.88,12.01,2.12,.7,4.24,1.4,6.34,2.17,2.99,1.11,6.04,2.25,8.77,3.97Z" style="fill:#fff;"></path><path d="M279.52,340.05c-3.16-1.01-6.34-1.96-9.49-2.99-10.98-3.61-22.21-7.46-31.49-14.57-2.3-1.82-4.4-3.84-6.41-5.94-9.07-9.69-16.19-21.06-25.53-30.51-4.03-3.99-8.52-7.78-13.9-9.71-3.22-1.06-6.65-1.69-10.01-2.2-15.55-2.37-32.46-2.41-48.18-3.23-1.19-.05-4.24-.24-6.07-.37,.02-.08,.04-.16,.06-.24,14.63,.04,29.54-.27,44.1,1.04,4,.38,8.1,.91,12.05,1.68,3.97,.88,8.06,1.75,11.62,3.82,4.06,2.33,7.5,5.51,10.74,8.82,4.64,4.79,9.28,10.58,13.56,15.74,5.87,7.01,11.67,14.27,18.92,19.89,9.21,6.84,20.34,10.42,31.12,14.02,2.2,.74,4.51,1.47,6.82,2.22,.78,.85,1.48,1.7,2.09,2.54Z" style="fill:#fff;"></path></g><path d="M168.42,240.16c-6.83-3.88,25.51-13.5,37.82-12.36,12.31,1.14,36.77,13.26,42.73,20.18,5.96,6.92,9.11,9.75-3.71,5.26-12.83-4.49-33.55-9.16-38.82-9.33-5.27-.16-33.9-1.41-38.02-3.75Z" style="fill:#fff; opacity:.2;"></path><path d="M278.2,286.08c-11.66-.3-15.1,6.34-17.93,8.81-2.82,2.47-11.67,13.76-8.05,13.36,3.62-.4,14-10.93,20.09-11.84,6.1-.91,20.07-5.74,18.42-8.03-1.65-2.29-8.51-2.2-12.54-2.3Z" style="opacity:.1;"></path></g><g><path d="M281.25,397.2c3.17-1.83,3.14-7.91-2.09-32.44-5.23-24.53-8.46-26.41-12.2-30.63-3.74-4.22-15.7-18.5-42.67-19.3-26.97-.8-48.08,7.79-59.2,8.05-17.28,.4-31.58-3.96-34.61,2.09-3.03,6.05,4.79,28.18,6.42,33.33,1.63,5.15,1.97,19.64,5.74,21.44,3.77,1.79,46.44,11.06,67.64,13.75,21.2,2.69,61.43,9.24,70.97,3.72Z" style="fill:#eb9481;"></path><path d="M281.25,397.2c3.17-1.83,3.14-7.91-2.09-32.44-5.23-24.53-8.46-26.41-12.2-30.63-3.74-4.22-15.7-18.5-42.67-19.3-26.97-.8-48.08,7.79-59.2,8.05-17.28,.4-31.58-3.96-34.61,2.09-3.03,6.05,4.79,28.18,6.42,33.33,1.63,5.15,1.97,19.64,5.74,21.44,3.77,1.79,46.44,11.06,67.64,13.75,21.2,2.69,61.43,9.24,70.97,3.72Z" style="fill:#fff; opacity:.2;"></path><path d="M139.26,371.89c.73,3.82,1.73,7.05,3.38,7.84,3.77,1.79,46.44,11.06,67.64,13.74,21.2,2.69,61.43,9.24,70.96,3.72,4.99-7.3-10.58-13.82-20.95-20.51-10.37-6.69-20.15-16.72-34.08-18.9-13.92-2.17-45.28,5.61-59.48,6.6-12.33,.86-25.45,.59-27.48,7.5Z" style="opacity:.1;"></path><g style="opacity:.4;"><path d="M235.53,316.03c-.72-.14-1.45-.27-2.2-.39,1.11,.73,2.21,1.64,3.53,2.76,2.58,2.15,6,5.48,8.52,7.77,2.82,2.63,5.65,5.25,8.52,7.83,2.91,2.56,5.81,5.12,9.06,7.25,1.14,.71,2.37,1.49,3.75,1.68,2.68,.32,4.02-1.26,4.54-3.47-.15-.25-.3-.49-.45-.72-.11,.51-.26,1.01-.47,1.5-.79,1.92-2.76,2.24-4.42,1.53-2.54-1.18-4.7-3.13-6.88-4.93-7.25-6.26-13.98-13.3-21.51-19.3-.66-.51-1.31-1.02-1.98-1.51Z" style="fill:#fff;"></path><path d="M130.79,324.44c7.43-.83,14.9-1.11,22.28-.78,2.37,.13,4.74,.33,7.09,.66,1.38,.17,2.9,.48,4.29,.61,3.9,.38,7.87-.28,11.69-1.24,5.69-1.43,11.08-3.76,16.69-5.34,2.86-.74,5.73-1.47,8.61-2.15-1.27,.18-2.52,.37-3.75,.57-.35,.06-.69,.11-1.04,.17-2.94,.5-5.74,1.05-8.4,1.61-4.13,1.26-8.22,2.74-12.38,3.73-3.69,.88-7.48,1.47-11.21,1.05-.97-.1-1.87-.29-2.8-.43-.02,0-.04,0-.06,0-6-.05-11.56-.59-16.3-.92h0c-4.37,.11-8.73,.45-13.08,1.01-.04,.03-.09,.05-.13,.08-.04,.03-.09,.05-.14,.08-.15,.1-.3,.2-.43,.31-.07,.05-.13,.11-.19,.16h-.01c-.06,.07-.12,.12-.18,.18,0,0-.02,.02-.03,.03-.05,.05-.1,.1-.14,.16-.02,.02-.04,.05-.06,.07-.05,.05-.09,.11-.13,.16-.05,.07-.1,.14-.15,.2v.02Z" style="fill:#fff;"></path><path d="M245.34,318.79c2.1,1.95,4.21,3.88,6.33,5.79,2.92,2.56,5.81,5.12,9.06,7.25,1.14,.71,2.37,1.49,3.75,1.68,.7,.08,1.31,.04,1.83-.12-.2-.23-.42-.47-.65-.72-.65,.07-1.34-.05-1.98-.33-2.55-1.17-4.7-3.13-6.88-4.93-2.65-2.29-5.22-4.67-7.79-7.08-1.16-.54-2.38-1.06-3.67-1.55Z" style="fill:#fff;"></path><path d="M129.95,331.76c.04,.36,.08,.73,.13,1.11,1.44-.1,2.88-.22,4.32-.38,8.55-.91,17-3.12,25.56-3.39,2.32-.06,4.7,.1,6.99,.48,2.44,.35,4.97,.1,7.37-.41,5.71-1.24,11.09-3.86,16.41-6.21,3.53-1.6,7.08-2.97,10.9-3.37,5.67-.73,11.43-.79,17.09-.35,3.77,.32,7.55,.86,11.17,1.94,1.8,.55,3.57,1.22,5.15,2.18,3.16,2.03,5.94,4.72,8.74,7.26,5.53,5.11,11.26,10.64,17.05,15.42,1.49,1.22,3.01,2.4,4.64,3.44,1.67,1.07,3.64,2.14,5.69,1.43,2.2-.82,2.71-3.27,2.79-5.6-.14-.37-.28-.73-.41-1.07-.07,1.41-.25,2.8-.78,4.11-.77,1.92-2.69,2.29-4.36,1.61-.82-.34-1.62-.83-2.39-1.36-7.66-5.63-14.17-12.73-21.4-18.99-2.93-2.52-5.81-5.07-9.13-7.04-1.71-.95-3.55-1.56-5.4-2.05-5.55-1.41-11.29-1.89-17.02-2.08-4.77-.11-9.6-.07-14.37,.7-2.87,.48-5.66,1.58-8.37,2.68-7.38,2.92-15.91,7.47-23.81,6.04-3.11-.53-6.29-.51-9.44-.27-7.68,.67-15.16,2.59-22.78,3.63-1.45,.2-2.9,.38-4.35,.53Z" style="fill:#fff;"></path><path d="M130.55,335.75c.06,.32,.12,.65,.19,.99,1.93-.3,3.86-.56,5.8-.77,5.68-.62,11.4-.72,17.07-.31,4.69,.34,9.46,1.04,14.1,1.82l1.41,.23c2.45,.39,4.99,.18,7.39-.32,7.65-1.58,14.53-5.72,21.83-8.36,1.81-.64,3.67-.99,5.55-1.25,3.79-.5,7.61-.69,11.42-.64,7.05,.16,15.9,.85,22.08,4.33,3.17,2.01,5.96,4.71,8.77,7.26,5.57,5.15,11.26,10.64,17.08,15.46,1.87,1.52,3.79,3.03,5.9,4.2,.87,.48,1.86,.91,2.87,.92,3.51,.15,4.3-3.1,4.4-6.14-.14-.5-.27-.98-.4-1.45-.16,3.82-.79,7.92-5.18,6.41-2.54-1.15-4.69-3.1-6.86-4.89-7.22-6.23-13.93-13.23-21.41-19.22-1.51-1.19-3.04-2.37-4.75-3.33-1.72-.94-3.56-1.54-5.42-2.02-5.57-1.4-11.32-1.87-17.06-2.05-5.73-.06-11.63-.18-17.26,1.43-7.23,2.28-14.35,6.42-21.79,7.85-2.3,.44-4.62,.6-6.88,.22-1.32-.24-2.89-.51-4.23-.72-6.62-1.08-13.34-1.7-20.09-1.4-4.87,.19-9.73,.81-14.54,1.76Z" style="fill:#fff;"></path><path d="M132.49,344.01c.09,.32,.17,.64,.26,.95,5.8-.93,11.66-1.45,17.49-1.38,6.63,.06,13.2,.93,19.71,2.03,.91,.14,1.98,.35,2.88,.41,7.83,.43,15.22-3.46,22.32-6.53,3.51-1.57,7.05-3.1,10.85-3.45,3.78-.43,7.59-.46,11.37-.27,5.67,.32,11.35,1.08,16.76,2.74,1.79,.57,3.55,1.26,5.18,2.16,1.62,.92,3.11,2.11,4.57,3.29,7.32,6.11,14.22,12.78,21.75,18.63,1.51,1.17,3.06,2.31,4.72,3.31,1.69,1.02,3.67,2.05,5.7,1.34,1.83-.7,2.48-2.51,2.69-4.44-.12-.56-.25-1.1-.36-1.63-.09,1.2-.28,2.38-.73,3.51-.77,1.93-2.67,2.29-4.35,1.64-.83-.33-1.64-.8-2.42-1.31-9.33-6.53-17.21-15.07-26.36-21.92-1.55-1.15-3.09-2.3-4.81-3.19-5.2-2.49-10.94-3.36-16.6-4.12-6.62-.71-13.36-1.24-20.04-.2-2.87,.54-5.62,1.67-8.33,2.77-3.59,1.48-7.13,3.06-10.75,4.28-3.99,1.32-8.23,2.35-12.33,1.61-7.03-1.28-14.16-2.24-21.36-2.16-5.96,.05-11.91,.75-17.8,1.93Z" style="fill:#fff;"></path><path d="M134.75,351.63c.1,.32,.2,.63,.3,.94,1.83,0,3.67-.08,5.49-.22,8.47-.91,16.99-.79,25.36,.43,2.8,.36,5.6,.85,8.39,1.3,8.53,1,17.18-3.88,24.96-7.16,1.76-.76,3.54-1.48,5.35-2,1.8-.5,3.68-.74,5.56-.88,7.53-.5,15.17,.24,22.4,2.22,3.6,1.01,7.07,2.48,10.02,4.84,5.96,4.65,11.52,9.88,17.36,14.72,4.41,3.64,8.74,7.46,13.74,10.25,1.73,1,4.19,1.53,5.78-.19,.76-.86,1.16-1.88,1.39-2.94-.1-.52-.21-1.06-.32-1.61-.08,.53-.19,1.04-.33,1.56-.95,3.53-3.31,3.92-6.06,2.28-1.6-.91-3.12-2.03-4.62-3.17-7.45-5.79-14.39-12.38-21.82-18.28-3.01-2.33-6.02-4.84-9.57-6.27-7.09-2.73-14.72-3.73-22.29-4.14-3.81-.16-7.68-.18-11.45,.67-1.9,.47-3.73,1.14-5.53,1.85-7.08,2.75-14.04,6.54-21.61,6.82-1.87,.07-3.66-.35-5.48-.65-5.62-.96-11.29-1.66-17.01-1.75-4.74-.09-9.56,.31-14.29,.92-.94,.12-1.88,.19-2.82,.28-.96,.07-1.93,.13-2.9,.17Z" style="fill:#fff;"></path><path d="M137.29,359.79c.07,.3,.13,.62,.19,.95,2.89-.02,5.78-.2,8.65-.49,5.73-.49,11.46-.43,17.15,.11,3.8,.38,7.57,.92,11.33,1.56,.53,.09,1.64,.27,2.15,.34,1.24,.16,2.5,.18,3.74,.09,7.84-.67,15.01-4.73,22.22-7.71,1.79-.74,3.61-1.44,5.45-1.83,8.47-1.5,20.16,.35,28.23,3,3.62,1.18,7.03,2.87,10,5.3,8.95,7.13,17.54,15.27,26.84,21.94,2.03,1.36,4.04,2.87,6.43,3.53,1.53,.3,2.6-.16,3.3-1.03-.05-.38-.1-.77-.15-1.17-.55,1.06-1.46,1.61-2.93,1.27-2.21-.7-4.11-2.22-6-3.56-9.19-6.92-17.56-15.05-26.9-21.82-1.57-1.14-3.21-2.22-4.98-3.02-8.12-3.71-25.06-6.74-33.97-5.35-3.88,.73-7.48,2.42-11.12,3.92-3.58,1.5-7.18,3.01-10.9,4.01-2.75,.73-5.55,1.2-8.33,.92-.55-.05-.86-.11-1.37-.2-2.34-.42-4.75-.81-7.11-1.15-6.2-.87-12.52-1.23-18.81-.81-3.34,.18-6.77,.73-10.09,1.01-1.01,.08-2.02,.14-3.03,.18Z" style="fill:#fff;"></path></g><g style="opacity:.2;"><path d="M200.99,392.12c.84,.14,1.66,.26,2.46,.39,7.46-2.02,14.83-4.6,22.41-5.85,4.23-.65,8.64-.95,12.71,.35,2.39,.83,4.7,2.03,6.92,3.27,4.49,2.51,8.83,5.35,13.07,8.29,.25,.17,.52,.35,.8,.54,.79,.04,1.57,.08,2.33,.11-2.2-1.62-4.42-3.2-6.69-4.72-5.07-3.36-10.35-6.6-16.15-8.44-8.25-2.22-20.01,1.71-28.39,3.74-3.13,.78-6.3,1.62-9.48,2.3Z" style="fill:#fff;"></path><path d="M139.53,373.21c.1,.47,.21,.93,.32,1.36,2.42,.3,4.77,1.07,7.1,1.82,10.61,3.59,21.08,8.12,32.34,9.37,5.65,.71,11.43-.13,16.98-1.53,9.2-2.24,18.21-5.61,27.51-7.14,4.58-.7,9.37-1.04,13.79,.35,2.59,.9,5.1,2.2,7.51,3.54,4.05,2.26,7.99,4.78,11.85,7.39,4.25,2.84,10.78,7.61,15.24,10.82,.43-.03,.85-.06,1.27-.1-5.91-4.66-11.87-9.25-18.11-13.44-5.49-3.63-11.2-7.15-17.48-9.15-8.95-2.42-21.65,1.82-30.73,4.04-9.07,2.28-18.36,5-27.64,3.77-9.16-1.17-18.04-4.62-26.74-7.59-1.77-.61-3.54-1.22-5.34-1.77-2.56-.77-5.18-1.55-7.89-1.76Z" style="fill:#fff;"></path><path d="M145.3,366.81c2.62,.93,5.22,1.92,7.85,2.83,9.16,3.17,18.62,6.3,28.49,6.09,2.48-.09,4.92-.43,7.35-.88,11.07-2.15,21.72-6.51,32.84-8.34,4.75-.73,9.71-1.08,14.29,.36,2.69,.93,5.29,2.27,7.79,3.66,11.55,6.43,22.79,15.23,33.64,22.85,.81,.59,2.94,2.05,4.22,2.91,.03-.07,.06-.13,.09-.2-9.72-7.61-19.45-15.61-29.79-22.28-2.85-1.82-5.85-3.58-8.87-5.1-3.09-1.45-6.26-2.96-9.7-3.35-3.9-.47-7.85,0-11.73,.66-5.57,.98-11.68,2.67-17.2,4.1-7.55,1.92-15.18,4.04-22.92,4.25-9.68,.05-18.93-3.22-27.96-6.29-1.85-.63-3.75-1.31-5.69-1.98-.96,.2-1.87,.44-2.71,.71Z" style="fill:#fff;"></path></g><path d="M271.09,353.86c6.55,.81-9.88-22.91-18.63-28.52-8.76-5.62-31.3-9.78-38.87-7.97-7.56,1.8-11.13,2.16-.28,5.67,10.85,3.51,27.03,11.01,30.61,13.64,3.58,2.63,23.22,16.69,27.17,17.18Z" style="fill:#fff; opacity:.2;"></path><path d="M174.32,329.16c7.89,5.87,6.71,12.39,7.29,15.62s.56,15.86-1.63,13.69c-2.19-2.17-3.58-15.07-7.15-18.9-3.57-3.83-10.32-14.55-8.03-15.32,2.29-.77,6.79,2.88,9.52,4.91Z" style="opacity:.1;"></path></g></g></g><g id="freepik--Broccoli--inject-103"><g><g><path d="M390.07,110.81s5.13,.35,6.4,3.47c1.27,3.12,2.25,9.38,1.27,11.01-.98,1.63-1.89,2.02-1.89,2.02,0,0-1.99,5.11-6.05,7.18-4.05,2.07-10.01-.03-12.07-2.32-2.06-2.29-5.7-7.82-3.23-11.69,0,0-.62-5.2,4.27-6.21,0,0,3.16-6.79,11.29-3.46Z" style="fill:#263238;"></path><path d="M368.29,112.58s-5.55,1.44-8.5,.21c-2.95-1.22-4.98-6.07-4.98-6.07,0,0-3.63-1.89-4.97-4.8-1.34-2.92,1.95-11.15,3.71-12.19,1.76-1.04,5.5-4.44,9.58-3.04,4.09,1.4,9.05,2.37,10.82,6.82,0,0,2.87,1.9,2.93,7.54,.06,5.64-2.3,10.86-8.59,11.53Z" style="fill:#263238;"></path><path d="M364.43,105.57s2.42-4.54,5.78-4.42c3.37,.12,9.48,1.78,10.57,3.34s1.07,2.55,1.07,2.55c0,0,3.85,3.9,4.08,8.45,.23,4.55-4.11,9.12-7.04,10.07-2.93,.95-9.46,2-11.99-1.83,0,0-5-1.56-3.93-6.44,0,0-4.91-5.66,1.46-11.72Z" style="fill:#263238;"></path><g><path d="M370.96,86.67s9.18,3.73,10.53,3.94c1.34,.21,5.98-1.08,7.13-1.98,1.15-.9,11.55-8.59,11.55-8.59,0,0,7.17,5.58,7.78,6.45,.6,.87,3.35,7.8,3.35,7.8,0,0-13.65,12.64-15.03,13.64-1.38,1-1.5,13.5-1.5,13.5l-3.7,.89-1.05-9.39s-2.95,4.18-3.26,4.76c-.3,.58-.85,6.32-.85,6.32l-5.91-1.51s-1.09-6.99-.98-8.17c.11-1.18,3.01-6.73,3.01-6.73,0,0-6.68,2.88-7.81,3.26-1.13,.38-12.52-1.21-12.52-1.21l1.05-8.42s8.24-.14,9.91-.7c1.67-.56,5.15-2.63,5.15-2.63,0,0-4.13-2.74-5.09-3.84-.95-1.11-4.01-4.36-4.01-4.36l1.76-2.64" style="fill:#455a64;"></path><path d="M370.96,86.67s9.18,3.73,10.53,3.94c1.34,.21,5.98-1.08,7.13-1.98,1.15-.9,11.55-8.59,11.55-8.59,0,0,7.17,5.58,7.78,6.45,.6,.87,3.35,7.8,3.35,7.8,0,0-13.65,12.64-15.03,13.64-1.38,1-1.5,13.5-1.5,13.5l-3.7,.89-1.05-9.39s-2.95,4.18-3.26,4.76c-.3,.58-.85,6.32-.85,6.32l-5.91-1.51s-1.09-6.99-.98-8.17c.11-1.18,3.01-6.73,3.01-6.73,0,0-6.68,2.88-7.81,3.26-1.13,.38-12.52-1.21-12.52-1.21l1.05-8.42s8.24-.14,9.91-.7c1.67-.56,5.15-2.63,5.15-2.63,0,0-4.13-2.74-5.09-3.84-.95-1.11-4.01-4.36-4.01-4.36l1.76-2.64" style="fill:#FFC727; opacity:.3;"></path></g><g><path d="M364.62,72.62s5.13,.35,6.4,3.47c1.27,3.12,2.25,9.38,1.27,11.01-.98,1.63-1.89,2.02-1.89,2.02,0,0-1.99,5.11-6.05,7.18-4.05,2.07-10.01-.03-12.07-2.32-2.06-2.29-5.7-7.82-3.23-11.69,0,0-.62-5.2,4.27-6.21,0,0,3.16-6.79,11.29-3.46Z" style="fill:#37474f;"></path><path d="M362.54,73.35s3.65,.25,4.56,2.47c.9,2.22,1.6,6.68,.9,7.84-.7,1.16-1.35,1.44-1.35,1.44,0,0-1.42,3.64-4.3,5.11-2.89,1.48-7.13-.02-8.59-1.65-1.47-1.63-4.06-5.57-2.3-8.33,0,0-.44-3.7,3.04-4.42,0,0,2.25-4.84,8.04-2.46Z" style="fill:#FFC727; opacity:.1;"></path><path d="M359.41,75.13s2.22,.15,2.77,1.5c.55,1.35,.97,4.06,.55,4.76-.42,.71-.82,.87-.82,.87,0,0-.86,2.21-2.62,3.11-1.75,.9-4.33-.01-5.22-1-.89-.99-2.46-3.38-1.4-5.06,0,0-.27-2.25,1.85-2.69,0,0,1.37-2.94,4.89-1.5Z" style="fill:#FFC727; opacity:.3;"></path></g><g><path d="M338.89,108.24s-3.26-6.51-2.53-10.51c.73-4,6.22-7.81,6.22-7.81,0,0,1.38-5.01,4.64-7.45,3.27-2.44,14.37-.56,16.13,1.35,1.76,1.91,6.98,5.65,6.33,11.09-.65,5.45-.53,11.87-5.59,15.25,0,0-1.6,4.08-8.59,5.65-6.99,1.58-14.1,.03-16.61-7.59Z" style="fill:#455a64;"></path><path d="M339.97,103.5s-2.44-4.86-1.89-7.85c.55-2.98,4.64-5.83,4.64-5.83,0,0,1.03-3.74,3.47-5.56,2.44-1.83,10.73-.41,12.05,1.01,1.31,1.43,5.21,4.22,4.73,8.29-.48,4.07-.4,8.87-4.17,11.39,0,0-1.2,3.05-6.41,4.22-5.22,1.18-10.53,.02-12.41-5.67Z" style="fill:#FFC727; opacity:.1;"></path><path d="M341.01,98.99s-1.61-3.22-1.25-5.2c.36-1.98,3.07-3.86,3.07-3.86,0,0,.68-2.48,2.3-3.69,1.62-1.21,7.11-.27,7.98,.67,.87,.94,3.45,2.79,3.13,5.49-.32,2.69-.26,5.87-2.76,7.54,0,0-.79,2.02-4.25,2.8-3.46,.78-6.97,.02-8.21-3.75Z" style="fill:#FFC727; opacity:.3;"></path></g><g><path d="M402,145.81s-5.55,1.44-8.5,.21c-2.95-1.22-4.98-6.07-4.98-6.07,0,0-3.63-1.88-4.97-4.8-1.34-2.92,1.95-11.15,3.71-12.19,1.76-1.04,5.5-4.44,9.58-3.04,4.09,1.4,9.05,2.37,10.82,6.82,0,0,2.87,1.9,2.93,7.54,.06,5.64-2.31,10.86-8.59,11.53Z" style="fill:#37474f;"></path><path d="M397.11,142.99s-3.8,.98-5.82,.14c-2.02-.84-3.41-4.16-3.41-4.16,0,0-2.48-1.29-3.4-3.29-.92-2,1.33-7.64,2.54-8.35,1.2-.71,3.76-3.04,6.56-2.08,2.8,.96,6.19,1.62,7.4,4.67,0,0,1.97,1.3,2.01,5.16,.04,3.86-1.58,7.43-5.88,7.89Z" style="fill:#FFC727; opacity:.1;"></path></g><g><path d="M371.64,143.16s-4.35,4.58-7.83,5.16c-3.48,.58-8.2-2.77-8.2-2.77,0,0-4.49,.35-7.45-1.59-2.96-1.94-4.69-11.56-3.65-13.56,1.04-2,2.55-7.36,7.19-8.43s9.84-3.06,14.09,.07c0,0,3.8,.1,7.14,5.34,3.34,5.24,4.18,11.5-1.3,15.79Z" style="fill:#37474f;"></path><path d="M365.58,142.8s-3.25,3.42-5.85,3.85c-2.6,.43-4.68-2.67-4.68-2.67,0,0-3.62,2.26-7.01-.59-2.02-1.7-3.5-8.64-2.72-10.13,.78-1.49,1.91-5.49,5.37-6.3,3.46-.8,7.35-2.29,10.52,.05,0,0,2.84,.08,5.33,3.99,2.5,3.91,3.12,8.59-.97,11.79Z" style="fill:#FFC727; opacity:.1;"></path><path d="M361.92,142.73s-2.23,2.35-4.01,2.64c-1.78,.3-3.21-1.83-3.21-1.83,0,0-2.48,1.55-4.8-.4-1.39-1.17-2.4-5.92-1.87-6.94,.53-1.02,1.31-3.77,3.68-4.32,2.37-.55,5.04-1.57,7.21,.03,0,0,1.94,.05,3.66,2.73,1.71,2.68,2.14,5.89-.67,8.08Z" style="fill:#FFC727; opacity:.3;"></path></g><g><path d="M337.14,112.05s.5-4.19,3.39-5.83c2.89-1.64,6.78-6.35,12.03-5.3,5.26,1.05,10.54,7.27,10.54,7.27,0,0,5.48,1.59,8.51,9.04s-.16,12.99-3.78,16.1c-3.63,3.11-13.22,.89-13.22,.89,0,0-14.3-1.12-16.35-11.28,0,0-6.38-4.73-1.11-10.9Z" style="fill:#455a64;"></path><path d="M336.93,113.82s.35-2.94,2.38-4.09c2.03-1.15,4.76-4.46,8.45-3.72,3.69,.74,7.4,5.11,7.4,5.11,0,0,3.85,1.11,5.98,6.35,2.13,5.24-.11,9.12-2.66,11.3-2.55,2.18-9.28,.63-9.28,.63,0,0-10.04-.79-11.48-7.92,0,0-4.48-3.32-.78-7.65Z" style="fill:#FFC727; opacity:.1;"></path><path d="M336.87,114.92s.22-1.83,1.48-2.55c1.26-.72,2.96-2.78,5.26-2.32,2.3,.46,4.61,3.18,4.61,3.18,0,0,2.4,.69,3.72,3.95,1.33,3.26-.07,5.68-1.65,7.04-1.59,1.36-5.78,.39-5.78,.39,0,0-6.25-.49-7.15-4.93,0,0-2.79-2.07-.49-4.77Z" style="fill:#FFC727; opacity:.3;"></path></g><g><path d="M358.89,137.59s-2.52-7.38,1.1-10.99c3.62-3.61,11.8-8.65,14.65-8.24,2.86,.41,3.93,1.46,3.93,1.46,0,0,8.31-.21,13.59,4.24,5.28,4.45,5.84,14.01,3.85,18.24-1.99,4.23-7.59,12.55-14.46,11.38,0,0-6.91,3.92-11.2-2.32,0,0-11.35-.43-11.47-13.76Z" style="fill:#455a64;"></path><path d="M359.38,138.48s-1.95-5.72,.85-8.52c2.8-2.8,9.15-6.71,11.36-6.39,2.21,.32,3.05,1.13,3.05,1.13,0,0,6.45-.17,10.54,3.29,4.09,3.45,4.53,10.86,2.98,14.14-1.54,3.28-5.88,9.73-11.21,8.83,0,0-5.36,3.04-8.68-1.8,0,0-8.8-.33-8.89-10.67Z" style="fill:#FFC727; opacity:.1;"></path><path d="M359.87,138.27s-1.15-3.38,.5-5.03c1.65-1.65,5.4-3.96,6.7-3.77,1.31,.19,1.8,.67,1.8,.67,0,0,3.8-.1,6.22,1.94,2.41,2.04,2.67,6.41,1.76,8.34-.91,1.93-3.47,5.74-6.61,5.21,0,0-3.16,1.79-5.12-1.06,0,0-5.19-.2-5.24-6.29Z" style="fill:#FFC727; opacity:.3;"></path></g></g><g><path d="M316.45,270.82s-4.75,1.96-7.28-.27c-2.52-2.23-6.18-7.41-6.02-9.3,.15-1.9,.8-2.65,.8-2.65,0,0-.48-5.46,2.23-9.12,2.71-3.66,8.98-4.42,11.84-3.28,2.86,1.14,8.57,4.48,8.08,9.05,0,0,2.86,4.39-1.07,7.46,0,0,.18,7.49-8.59,8.11Z" style="fill:#263238;"></path><path d="M335.18,259.56s4.34-3.75,7.53-3.96c3.19-.21,7.16,3.23,7.16,3.23,0,0,4.09,.08,6.58,2.1,2.5,2.02,3.2,10.86,2.09,12.57-1.12,1.71-2.96,6.42-7.24,6.98-4.28,.56-9.16,1.89-12.72-1.31,0,0-3.42-.43-5.98-5.46-2.55-5.03-2.75-10.75,2.58-14.14Z" style="fill:#263238;"></path><path d="M341.75,264.13s-.15,5.14-3.22,6.53c-3.07,1.39-9.29,2.61-10.95,1.7-1.67-.91-2.09-1.81-2.09-1.81,0,0-5.18-1.79-7.41-5.76-2.23-3.97-.36-10,1.84-12.15,2.21-2.15,7.59-5.99,11.56-3.68,0,0,5.18-.82,6.37,4.03,0,0,6.91,2.89,3.89,11.15Z" style="fill:#263238;"></path><g><path d="M344.29,283.97s-9.88,.73-11.18,1.14c-1.3,.41-4.88,3.62-5.51,4.94s-6.54,12.82-6.54,12.82c0,0-8.9-1.81-9.83-2.33-.93-.52-6.46-5.5-6.46-5.5,0,0,6.63-17.38,7.42-18.89,.79-1.51-4.65-12.76-4.65-12.76l2.92-2.44,5.1,7.95s.79-5.06,.81-5.71c.02-.65-2.04-6.04-2.04-6.04l5.97-1.27s4.08,5.78,4.51,6.89c.43,1.11,.29,7.36,.29,7.36,0,0,4.71-5.54,5.56-6.39,.85-.85,11.75-4.47,11.75-4.47l2.79,8.02s-7.32,3.78-8.57,5.03c-1.24,1.24-3.45,4.64-3.45,4.64,0,0,4.92,.62,6.27,1.19,1.35,.57,5.52,2.13,5.52,2.13l-.41,3.14" style="fill:#455a64;"></path><path d="M344.29,283.97s-9.88,.73-11.18,1.14c-1.3,.41-4.88,3.62-5.51,4.94s-6.54,12.82-6.54,12.82c0,0-8.9-1.81-9.83-2.33-.93-.52-6.46-5.5-6.46-5.5,0,0,6.63-17.38,7.42-18.89,.79-1.51-4.65-12.76-4.65-12.76l2.92-2.44,5.1,7.95s.79-5.06,.81-5.71c.02-.65-2.04-6.04-2.04-6.04l5.97-1.27s4.08,5.78,4.51,6.89c.43,1.11,.29,7.36,.29,7.36,0,0,4.71-5.54,5.56-6.39,.85-.85,11.75-4.47,11.75-4.47l2.79,8.02s-7.32,3.78-8.57,5.03c-1.24,1.24-3.45,4.64-3.45,4.64,0,0,4.92,.62,6.27,1.19,1.35,.57,5.52,2.13,5.52,2.13l-.41,3.14" style="fill:#FFC727; opacity:.3;"></path></g><g><path d="M356.2,293.75s-4.75,1.96-7.28-.27c-2.52-2.23-6.18-7.41-6.02-9.3,.15-1.9,.8-2.65,.8-2.65,0,0-.48-5.46,2.23-9.12,2.71-3.66,8.98-4.42,11.84-3.28,2.86,1.14,8.57,4.48,8.08,9.05,0,0,2.86,4.39-1.07,7.46,0,0,.18,7.49-8.58,8.11Z" style="fill:#37474f;"></path><path d="M357.73,292.17s-3.39,1.4-5.18-.19c-1.8-1.59-4.4-5.27-4.29-6.62,.11-1.35,.57-1.89,.57-1.89,0,0-.34-3.89,1.59-6.49,1.93-2.6,6.39-3.14,8.43-2.34,2.04,.81,6.1,3.19,5.75,6.44,0,0,2.04,3.12-.76,5.31,0,0,.13,5.33-6.11,5.77Z" style="fill:#FFC727; opacity:.1;"></path><path d="M359.76,289.19s-2.06,.85-3.15-.12c-1.09-.97-2.67-3.21-2.61-4.03s.35-1.15,.35-1.15c0,0-.21-2.36,.97-3.95,1.17-1.58,3.89-1.91,5.13-1.42s3.71,1.94,3.5,3.92c0,0,1.24,1.9-.46,3.23,0,0,.08,3.24-3.72,3.51Z" style="fill:#FFC727; opacity:.3;"></path></g><g><path d="M363.45,250.42s5.81,4.39,6.93,8.29c1.12,3.91-2.11,9.75-2.11,9.75,0,0,.99,5.1-.85,8.74-1.84,3.64-12.64,6.88-15.06,5.94-2.42-.93-8.76-1.96-10.59-7.13-1.84-5.17-4.79-10.87-1.76-16.15,0,0-.38-4.36,5.19-8.88,5.56-4.51,12.62-6.28,18.25-.57Z" style="fill:#455a64;"></path><path d="M364.59,255.14s4.34,3.28,5.18,6.19c.83,2.92-1.57,7.28-1.57,7.28,0,0,.74,3.81-.64,6.52-1.38,2.72-9.44,5.14-11.24,4.44-1.81-.7-6.54-1.47-7.91-5.33-1.37-3.86-3.58-8.12-1.31-12.06,0,0-.28-3.26,3.87-6.63,4.15-3.37,9.43-4.69,13.63-.42Z" style="fill:#FFC727; opacity:.1;"></path><path d="M365.66,259.64s2.88,2.17,3.43,4.1c.55,1.93-1.04,4.82-1.04,4.82,0,0,.49,2.52-.42,4.32-.91,1.8-6.25,3.4-7.45,2.94-1.2-.46-4.33-.97-5.24-3.53-.91-2.56-2.37-5.38-.87-7.99,0,0-.19-2.16,2.57-4.39,2.75-2.23,6.24-3.11,9.03-.28Z" style="fill:#FFC727; opacity:.3;"></path></g><g><path d="M290.23,244.74s4.34-3.75,7.53-3.96c3.19-.21,7.16,3.23,7.16,3.23,0,0,4.09,.08,6.58,2.1,2.5,2.02,3.2,10.86,2.09,12.57-1.12,1.71-2.96,6.42-7.24,6.98-4.28,.56-9.16,1.89-12.72-1.31,0,0-3.42-.43-5.98-5.46-2.55-5.03-2.75-10.75,2.58-14.14Z" style="fill:#37474f;"></path><path d="M295.86,245.1s2.97-2.57,5.15-2.71c2.18-.15,4.9,2.21,4.9,2.21,0,0,2.8,.06,4.51,1.44,1.71,1.38,2.19,7.43,1.43,8.6-.76,1.17-2.03,4.39-4.96,4.78-2.93,.38-6.27,1.3-8.71-.9,0,0-2.34-.3-4.09-3.74-1.75-3.44-1.88-7.36,1.77-9.68Z" style="fill:#FFC727; opacity:.1;"></path></g><g><path d="M318.6,233.65s1.87-6.04,4.73-8.1c2.86-2.06,8.58-1.15,8.58-1.15,0,0,3.87-2.31,7.38-1.88,3.51,.43,9.33,8.28,9.28,10.53-.05,2.25,.98,7.72-2.7,10.75-3.68,3.02-7.46,7.11-12.66,6.19,0,0-3.45,1.59-8.77-1.62-5.32-3.21-8.85-8.45-5.84-14.73Z" style="fill:#37474f;"></path><path d="M324.2,231.29s1.4-4.51,3.53-6.05c2.13-1.54,5.38,.32,5.38,.32,0,0,2.24-3.63,6.54-2.58,2.57,.63,6.97,6.19,6.93,7.87-.04,1.68,.73,5.77-2.02,8.03-2.75,2.26-5.57,5.31-9.45,4.62,0,0-2.58,1.19-6.55-1.21-3.97-2.4-6.61-6.31-4.36-11Z" style="fill:#FFC727; opacity:.1;"></path><path d="M327.51,229.73s.96-3.09,2.42-4.15c1.46-1.05,3.69,.22,3.69,.22,0,0,1.54-2.49,4.48-1.77,1.76,.43,4.78,4.24,4.75,5.39-.02,1.15,.5,3.95-1.38,5.5-1.88,1.55-3.82,3.64-6.48,3.17,0,0-1.77,.82-4.49-.83-2.72-1.64-4.53-4.33-2.99-7.54Z" style="fill:#FFC727; opacity:.3;"></path></g><g><path d="M363.33,246.22s1.41,3.98-.45,6.73c-1.86,2.75-3.26,8.69-8.43,10.09-5.18,1.39-12.67-1.84-12.67-1.84,0,0-5.62,1.01-11.64-4.33-6.03-5.34-5.62-11.71-3.75-16.11,1.87-4.4,11.46-6.67,11.46-6.67,0,0,13.31-5.34,19.66,2.86,0,0,7.81,1.4,5.83,9.27Z" style="fill:#455a64;"></path><path d="M362.73,244.54s.99,2.79-.31,4.72c-1.31,1.93-2.29,6.1-5.92,7.08-3.64,.98-8.9-1.29-8.9-1.29,0,0-3.94,.71-8.17-3.04-4.23-3.75-3.95-8.22-2.63-11.31,1.31-3.09,8.04-4.68,8.04-4.68,0,0,9.35-3.75,13.8,2,0,0,5.49,.99,4.09,6.51Z" style="fill:#FFC727; opacity:.1;"></path><path d="M362.3,243.53s.62,1.74-.2,2.94c-.81,1.2-1.42,3.8-3.69,4.41-2.26,.61-5.54-.81-5.54-.81,0,0-2.46,.44-5.09-1.89-2.64-2.33-2.46-5.12-1.64-7.04,.82-1.92,5.01-2.92,5.01-2.92,0,0,5.82-2.34,8.6,1.25,0,0,3.42,.61,2.55,4.06Z" style="fill:#FFC727; opacity:.3;"></path></g><g><path d="M332.51,232.98s5.54,5.5,3.89,10.34c-1.64,4.84-6.73,12.99-9.47,13.89s-4.17,.44-4.17,.44c0,0-7.35,3.88-14.06,2.23-6.71-1.65-11.45-9.97-11.54-14.64-.09-4.67,1.23-14.62,7.91-16.62,0,0,4.45-6.58,11.07-2.89,0,0,10.36-4.65,16.38,7.24Z" style="fill:#455a64;"></path><path d="M331.67,232.4s4.29,4.26,3.02,8.01c-1.27,3.75-5.22,10.07-7.35,10.77-2.13,.7-3.24,.34-3.24,.34,0,0-5.7,3.01-10.9,1.73-5.2-1.28-8.88-7.73-8.95-11.35-.07-3.62,.95-11.33,6.13-12.88,0,0,3.45-5.1,8.58-2.24,0,0,8.04-3.61,12.7,5.62Z" style="fill:#FFC727; opacity:.1;"></path><path d="M331.32,232.81s2.53,2.52,1.78,4.73c-.75,2.21-3.08,5.94-4.33,6.35-1.25,.41-1.91,.2-1.91,.2,0,0-3.36,1.78-6.43,1.02-3.07-.75-5.24-4.56-5.28-6.69-.04-2.14,.56-6.69,3.62-7.6,0,0,2.04-3.01,5.06-1.32,0,0,4.74-2.13,7.49,3.31Z" style="fill:#FFC727; opacity:.3;"></path></g></g><g><path d="M398.48,227.75s.46,5.12-2.42,6.87c-2.88,1.74-8.91,3.7-10.67,2.99-1.76-.71-2.29-1.55-2.29-1.55,0,0-5.36-1.16-8.04-4.84-2.68-3.68-1.55-9.89,.39-12.28,1.94-2.39,6.82-6.85,11.04-5.03,0,0,5.04-1.43,6.81,3.24,0,0,7.2,2.05,5.19,10.61Z" style="fill:#263238;"></path><path d="M393.3,206.52s-2.29-5.26-1.55-8.37c.74-3.11,5.21-5.87,5.21-5.87,0,0,1.29-3.88,3.96-5.66,2.67-1.78,11.32,.17,12.62,1.74,1.3,1.57,5.25,4.73,4.51,8.99-.74,4.25-.92,9.31-5.03,11.75,0,0-1.43,3.14-6.99,4.08-5.56,.94-11.09-.57-12.74-6.67Z" style="fill:#263238;"></path><path d="M399.61,201.61s4.86,1.67,5.28,5.02c.41,3.34-.27,9.64-1.64,10.96-1.37,1.32-2.35,1.46-2.35,1.46,0,0-3.25,4.41-7.7,5.36-4.45,.95-9.66-2.63-11.05-5.37-1.39-2.75-3.47-9.03-.08-12.13,0,0,.75-5.19,5.74-4.89,0,0,4.82-5.74,11.8-.4Z" style="fill:#263238;"></path><g><path d="M419.31,205.08s-2.24,9.65-2.23,11.01c0,1.36,2.01,5.74,3.08,6.73,1.07,.99,10.3,10.06,10.3,10.06,0,0-4.38,7.96-5.15,8.7-.77,.73-7.17,4.54-7.17,4.54,0,0-14.63-11.5-15.83-12.7-1.2-1.2-13.57,.64-13.57,.64l-1.46-3.52,9.11-2.51s-4.59-2.26-5.21-2.47c-.62-.21-6.37,.16-6.37,.16l.56-6.07s6.73-2.18,7.92-2.25c1.19-.08,7.12,1.91,7.12,1.91,0,0-3.89-6.14-4.45-7.2-.55-1.06-.78-12.55-.78-12.55l8.49-.28s1.44,8.12,2.25,9.68c.82,1.56,3.4,4.67,3.4,4.67,0,0,2.05-4.51,2.99-5.63,.94-1.12,3.67-4.64,3.67-4.64l2.88,1.32" style="fill:#455a64;"></path><path d="M419.31,205.08s-2.24,9.65-2.23,11.01c0,1.36,2.01,5.74,3.08,6.73,1.07,.99,10.3,10.06,10.3,10.06,0,0-4.38,7.96-5.15,8.7-.77,.73-7.17,4.54-7.17,4.54,0,0-14.63-11.5-15.83-12.7-1.2-1.2-13.57,.64-13.57,.64l-1.46-3.52,9.11-2.51s-4.59-2.26-5.21-2.47c-.62-.21-6.37,.16-6.37,.16l.56-6.07s6.73-2.18,7.92-2.25c1.19-.08,7.12,1.91,7.12,1.91,0,0-3.89-6.14-4.45-7.2-.55-1.06-.78-12.55-.78-12.55l8.49-.28s1.44,8.12,2.25,9.68c.82,1.56,3.4,4.67,3.4,4.67,0,0,2.05-4.51,2.99-5.63,.94-1.12,3.67-4.64,3.67-4.64l2.88,1.32" style="fill:#FFC727; opacity:.3;"></path></g><g><path d="M432.19,196.62s.46,5.12-2.42,6.87c-2.88,1.74-8.91,3.7-10.67,2.99-1.76-.71-2.29-1.55-2.29-1.55,0,0-5.36-1.16-8.04-4.84-2.68-3.68-1.55-9.89,.39-12.28,1.94-2.39,6.82-6.85,11.04-5.03,0,0,5.04-1.43,6.81,3.24,0,0,7.2,2.05,5.19,10.61Z" style="fill:#37474f;"></path><path d="M431.14,194.68s.33,3.65-1.72,4.89c-2.05,1.24-6.34,2.63-7.6,2.13-1.26-.51-1.63-1.1-1.63-1.1,0,0-3.81-.83-5.73-3.45s-1.1-7.04,.28-8.75c1.38-1.71,4.86-4.88,7.86-3.58,0,0,3.59-1.02,4.85,2.31,0,0,5.13,1.46,3.7,7.55Z" style="fill:#FFC727; opacity:.1;"></path><path d="M428.89,191.86s.2,2.22-1.05,2.97c-1.25,.75-3.86,1.6-4.62,1.29-.76-.31-.99-.67-.99-.67,0,0-2.32-.5-3.48-2.1-1.16-1.59-.67-4.28,.17-5.32,.84-1.04,2.95-2.97,4.78-2.18,0,0,2.18-.62,2.95,1.4,0,0,3.12,.89,2.25,4.59Z" style="fill:#FFC727; opacity:.3;"></path></g><g><path d="M392.97,176.81s5.92-4.25,9.98-4.15c4.06,.1,8.69,4.91,8.69,4.91,0,0,5.16,.57,8.09,3.41,2.93,2.84,2.81,14.11,1.2,16.14-1.61,2.03-4.48,7.78-9.96,7.99-5.48,.22-11.81,1.34-15.94-3.12,0,0-4.28-.94-6.93-7.59-2.66-6.65-2.25-13.92,4.89-17.6Z" style="fill:#455a64;"></path><path d="M397.82,177.12s4.42-3.17,7.45-3.1c3.03,.07,6.49,3.67,6.49,3.67,0,0,3.85,.43,6.04,2.55,2.19,2.12,2.1,10.54,.9,12.06-1.2,1.52-3.35,5.81-7.44,5.97-4.09,.16-8.82,1-11.91-2.33,0,0-3.2-.7-5.18-5.67-1.98-4.97-1.68-10.4,3.65-13.14Z" style="fill:#FFC727; opacity:.1;"></path><path d="M402.43,177.44s2.93-2.1,4.94-2.05c2.01,.05,4.3,2.43,4.3,2.43,0,0,2.55,.28,4,1.69,1.45,1.4,1.39,6.98,.59,7.98-.8,1.01-2.22,3.85-4.93,3.95-2.71,.11-5.84,.66-7.88-1.54,0,0-2.12-.46-3.43-3.75-1.31-3.29-1.11-6.88,2.42-8.7Z" style="fill:#FFC727; opacity:.3;"></path></g><g><path d="M365.78,245.03s-2.29-5.26-1.55-8.37c.74-3.11,5.21-5.87,5.21-5.87,0,0,1.29-3.88,3.96-5.66,2.67-1.78,11.32,.17,12.62,1.74,1.3,1.57,5.25,4.73,4.51,8.99-.74,4.25-.92,9.31-5.03,11.75,0,0-1.43,3.14-6.99,4.08-5.56,.94-11.08-.57-12.74-6.67Z" style="fill:#37474f;"></path><path d="M367.8,239.77s-1.57-3.6-1.06-5.73c.51-2.13,3.57-4.02,3.57-4.02,0,0,.88-2.65,2.71-3.88,1.83-1.22,7.75,.12,8.64,1.19,.89,1.08,3.59,3.24,3.09,6.15-.51,2.91-.63,6.37-3.45,8.05,0,0-.98,2.15-4.78,2.8-3.81,.65-7.59-.39-8.72-4.56Z" style="fill:#FFC727; opacity:.1;"></path></g><g><path d="M363.63,214.65s-5.21-3.58-6.33-6.92c-1.12-3.34,1.45-8.53,1.45-8.53,0,0-1.05-4.38,.4-7.6,1.46-3.23,10.68-6.45,12.82-5.73,2.13,.71,7.67,1.36,9.46,5.77,1.79,4.41,4.57,9.24,2.15,13.93,0,0,.49,3.77-4.15,7.89-4.65,4.13-10.7,5.93-15.8,1.2Z" style="fill:#37474f;"></path><path d="M363.04,208.6s-3.89-2.67-4.72-5.17c-.83-2.5,1.9-5.04,1.9-5.04,0,0-2.8-3.22-.52-7.01,1.36-2.26,7.98-4.81,9.57-4.28,1.59,.53,5.73,1.02,7.06,4.31,1.34,3.29,3.42,6.9,1.61,10.4,0,0,.37,2.81-3.1,5.9-3.47,3.08-7.99,4.43-11.8,.89Z" style="fill:#FFC727; opacity:.1;"></path><path d="M362.53,204.97s-2.67-1.83-3.24-3.54c-.57-1.71,1.3-3.45,1.3-3.45,0,0-1.92-2.21-.36-4.81,.93-1.55,5.47-3.3,6.56-2.94,1.09,.37,3.92,.7,4.84,2.96,.92,2.26,2.34,4.73,1.1,7.13,0,0,.25,1.93-2.13,4.04-2.38,2.11-5.48,3.04-8.09,.61Z" style="fill:#FFC727; opacity:.3;"></path></g><g><path d="M388.93,175.68s4.22-.17,6.29,2.43c2.07,2.59,7.33,5.69,7.12,11.05s-5.53,11.55-5.53,11.55c0,0-.7,5.66-7.59,9.83-6.89,4.17-12.85,1.89-16.49-1.21s-2.96-12.92-2.96-12.92c0,0-1.14-14.3,8.57-17.92,0,0,3.66-7.04,10.59-2.81Z" style="fill:#455a64;"></path><path d="M387.14,175.75s2.96-.12,4.42,1.7c1.46,1.82,5.15,4,5,7.76-.15,3.76-3.88,8.11-3.88,8.11,0,0-.49,3.97-5.33,6.9-4.84,2.92-9.02,1.33-11.58-.85-2.56-2.17-2.08-9.07-2.08-9.07,0,0-.8-10.04,6.02-12.58,0,0,2.57-4.94,7.43-1.97Z" style="fill:#FFC727; opacity:.1;"></path><path d="M386.05,175.86s1.84-.07,2.75,1.06c.91,1.13,3.21,2.49,3.11,4.83-.09,2.34-2.42,5.05-2.42,5.05,0,0-.31,2.48-3.32,4.3-3.01,1.82-5.62,.83-7.21-.53-1.59-1.35-1.29-5.65-1.29-5.65,0,0-.5-6.25,3.75-7.84,0,0,1.6-3.08,4.63-1.23Z" style="fill:#FFC727; opacity:.3;"></path></g><g><path d="M367.13,201.17s6.89-3.65,11.03-.65c4.13,3,10.4,10.29,10.44,13.17,.04,2.88-.82,4.11-.82,4.11,0,0,1.52,8.18-2.05,14.09-3.57,5.91-12.92,7.97-17.4,6.67-4.49-1.3-13.59-5.52-13.51-12.49,0,0-4.96-6.21,.54-11.42,0,0-1.36-11.28,11.79-13.49Z" style="fill:#455a64;"></path><path d="M366.32,201.8s5.35-2.83,8.55-.5c3.2,2.33,8.06,7.98,8.1,10.21,.03,2.24-.64,3.19-.64,3.19,0,0,1.18,6.34-1.59,10.92-2.77,4.58-10.02,6.18-13.5,5.17-3.48-1.01-10.54-4.28-10.48-9.68,0,0-3.85-4.82,.41-8.86,0,0-1.05-8.75,9.14-10.46Z" style="fill:#FFC727; opacity:.1;"></path><path d="M366.61,202.25s3.15-1.67,5.04-.3c1.89,1.37,4.76,4.71,4.78,6.03,.02,1.32-.38,1.88-.38,1.88,0,0,.69,3.74-.94,6.44-1.63,2.7-5.91,3.65-7.96,3.05-2.05-.6-6.22-2.52-6.18-5.71,0,0-2.27-2.84,.24-5.23,0,0-.62-5.16,5.39-6.17Z" style="fill:#FFC727; opacity:.3;"></path></g></g></g></g><g id="freepik--Avocado--inject-103"><g><g><path d="M312.63,302.51c12.58,17.21,31.68,13.97,42.24,12.54,10.56-1.43,29.81-3.41,37.34-23.35,0,0-14.17,8.73-38.88,12.09-24.73,3.36-40.71-1.27-40.71-1.27Z" style="fill:#FFC727;"></path><path d="M266.12,308.83s11.06,29.58,37.08,39.35c26.04,9.79,42.85,7,56.86,5.09,14.01-1.9,30.96-3.7,53.44-20.08,22.46-16.36,25.22-47.82,25.22-47.82l-46.51,6.32s-5.78,12.48-38.22,16.89c-32.45,4.41-41.36-6.07-41.36-6.07l-46.51,6.32Z" style="fill:#FFC727;"></path><path d="M266.12,308.83s11.06,29.58,37.08,39.35c26.04,9.79,42.85,7,56.86,5.09,14.01-1.9,30.96-3.7,53.44-20.08,22.46-16.36,25.22-47.82,25.22-47.82l-46.51,6.32s-5.78,12.48-38.22,16.89c-32.45,4.41-41.36-6.07-41.36-6.07l-46.51,6.32Z" style="fill:#fff; opacity:.4;"></path><path d="M266.12,308.83s11.06,29.58,37.08,39.35c26.04,9.79,42.85,6.99,56.86,5.09,14.01-1.9,30.96-3.69,53.44-20.08,22.46-16.36,25.22-47.82,25.22-47.82l-2.84,.39c-1.66,9.83-7.11,31.65-23.77,44.39-21.99,16.84-38.65,18.56-52.42,20.43-13.77,1.87-30.28,4.65-55.97-5.7-19.45-7.84-30.52-27.41-34.77-36.44l-2.84,.39Z" style="fill:#455a64;"></path></g><g><path d="M304.29,350.18c16.86,13.05,34.31,4.64,44.06,.34,9.75-4.31,27.7-11.54,29.4-32.79,0,0-11.19,12.31-34,22.39-22.83,10.08-39.46,10.06-39.46,10.06Z" style="fill:#FFC727;"></path><path d="M261.35,369.15s18.83,25.35,46.54,27.53c27.73,2.19,43.11-5.16,56.05-10.87,12.93-5.71,28.73-12.14,45.78-34.11,17.05-21.95,10.97-52.94,10.97-52.94l-42.93,18.97s-2.09,13.59-32.04,26.82c-29.95,13.23-41.42,5.63-41.42,5.63l-42.93,18.97Z" style="fill:#FFC727;"></path><path d="M261.35,369.15s18.83,25.35,46.54,27.53c27.73,2.19,43.11-5.16,56.05-10.87,12.93-5.71,28.73-12.14,45.78-34.11,17.05-21.95,10.97-52.94,10.97-52.94l-42.93,18.97s-2.09,13.59-32.04,26.82c-29.95,13.23-41.42,5.63-41.42,5.63l-42.93,18.97Z" style="fill:#fff; opacity:.6;"></path><path d="M261.35,369.15s18.83,25.35,46.54,27.53c27.73,2.19,43.11-5.16,56.04-10.88,12.93-5.71,28.73-12.13,45.78-34.11,17.05-21.95,10.97-52.94,10.97-52.94l-2.62,1.16c1.13,9.91,1.94,32.38-10.53,49.24-16.46,22.27-31.99,28.55-44.7,34.16-12.71,5.61-27.81,12.87-55.36,10.04-20.86-2.14-36.93-17.87-43.51-25.37l-2.62,1.16Z" style="fill:#455a64;"></path></g></g></g><g id="freepik--Olives--inject-103"><g><g><path d="M268.08,277.7c8.05-8.32,31.4,7.26,19.7,20.31-11.12,12.4-29.91-9.75-19.7-20.31Z" style="fill:#263238;"></path><path d="M267.21,282.77c2.6-2.14,8.83,3.14,5.02,6.52-3.62,3.22-8.32-3.81-5.02-6.52Z" style="fill:#fff; opacity:.1;"></path><path d="M287.78,298.01c-2.2,2.44-4.66,3.54-7.17,3.64,4.38-1.35,6.84-7.44,6.23-12.6-.72-6.07-8.55-13.78-16.86-12.77,9.25-4.74,28.66,9.57,17.8,21.73Z" style="opacity:.2;"></path><path d="M286.9,296.88c-1.76,2.49-4.31,3.72-5.7,2.74-1.38-.98-1.08-3.79,.69-6.29,1.76-2.49,4.31-3.72,5.7-2.74,1.38,.98,1.08,3.79-.69,6.29Z" style="opacity:.2;"></path></g><g><path d="M211.05,113.64c8.34,8.03-7.2,31.41-20.27,19.74-12.43-11.09,9.69-29.93,20.27-19.74Z" style="fill:#263238;"></path><path d="M205.97,112.79c2.14,2.6-3.12,8.84-6.51,5.03-3.22-3.62,3.79-8.33,6.51-5.03Z" style="fill:#fff; opacity:.1;"></path><path d="M190.77,133.39c-2.44-2.2-3.55-4.66-3.66-7.16,1.36,4.38,7.46,6.83,12.61,6.21,6.07-.73,13.76-8.58,12.74-16.89,4.76,9.24-9.51,28.68-21.69,17.84Z" style="opacity:.2;"></path><path d="M191.9,132.51c-2.5-1.76-3.73-4.31-2.75-5.69,.98-1.39,3.79-1.09,6.29,.67,2.5,1.76,3.73,4.31,2.75,5.69-.98,1.39-3.79,1.09-6.29-.67Z" style="opacity:.2;"></path></g><g><path d="M390.84,282.3c5.66,11.2-18.6,29.56-27.8,12.95-8.74-15.8,20.62-27.16,27.8-12.95Z" style="fill:#263238;"></path><path d="M374.67,279c1.2,1.46-1.56,6.04-3.45,3.92-1.79-2.01,1.93-5.78,3.45-3.92Z" style="fill:#fff; opacity:.1;"></path><path d="M363.03,295.25c-1.72-3.12-1.97-6.04-1.18-8.64-.18,4.97,5.19,9.65,10.68,10.86,6.47,1.42,17.15-3.85,19.07-12.72,1.57,11.16-19.99,25.94-28.57,10.5Z" style="opacity:.2;"></path><path d="M370.45,291.17c1.3,3,.89,6.06-.9,6.84-1.8,.78-4.31-1.03-5.6-4.03-1.3-3-.89-6.06,.9-6.84,1.8-.78,4.31,1.03,5.6,4.03Z" style="opacity:.2;"></path></g><g><path d="M181.61,148.68c-1.33,9.1-23.62,9.87-22.13-3.97,1.42-13.16,23.82-7.58,22.13,3.97Z" style="fill:#263238;"></path><path d="M173.3,139.88c.1,1.38-3.48,2.96-3.72,.9-.23-1.96,3.6-2.65,3.72-.9Z" style="fill:#fff; opacity:.1;"></path><path d="M159.48,144.71c.29-2.6,1.37-4.45,2.94-5.67-2.2,2.9-.96,7.97,1.82,11.02,3.28,3.58,11.9,4.93,16.8,.42-3.77,7.35-22.93,7.11-21.56-5.76Z" style="opacity:.2;"></path><path d="M165.64,145.4c-.49,2.35-2.02,4.01-3.43,3.72s-2.15-2.43-1.66-4.78c.49-2.35,2.02-4.01,3.43-3.72,1.4,.29,2.15,2.43,1.66,4.78Z" style="opacity:.2;"></path></g><g><path d="M268.95,249.32c11,6.03,1.4,34.9-15.59,26.41-16.15-8.07,1.63-34.06,15.59-26.41Z" style="fill:#263238;"></path><path d="M263.4,249.87c2.98,2.11-.75,10.13-5.38,7.12-4.4-2.87,1.6-9.79,5.38-7.12Z" style="fill:#fff; opacity:.1;"></path><path d="M253.75,255.75c1.81,.53,2.13,5.86-.62,5.19-2.62-.64-1.68-5.86,.62-5.19Z" style="fill:#fff; opacity:.1;"></path><path d="M253.36,275.73c-3.18-1.6-5.04-3.86-5.86-6.45,2.67,4.19,9.74,5.02,14.95,2.91,6.14-2.49,11.96-12.88,8.52-21.28,7.61,8.31-1.8,32.7-17.61,24.83Z" style="opacity:.2;"></path></g><g><path d="M129.02,265.4c10,5.84,.41,32.22-15.04,23.96-14.69-7.85,2.36-31.37,15.04-23.96Z" style="fill:#263238;"></path><path d="M123.89,265.77c2.7,2.02-.95,9.32-5.14,6.43-3.99-2.75,1.72-8.99,5.14-6.43Z" style="fill:#fff; opacity:.1;"></path><path d="M113.98,289.37c-2.89-1.56-4.55-3.69-5.24-6.1,2.35,3.94,8.86,4.88,13.72,3.06,5.72-2.14,11.35-11.58,8.39-19.41,6.81,7.86-2.48,30.11-16.87,22.45Z" style="opacity:.2;"></path></g><g><path d="M364.88,162.16c10,5.84,.41,32.22-15.04,23.96-14.69-7.85,2.36-31.37,15.04-23.96Z" style="fill:#263238;"></path><path d="M359.75,162.53c2.7,2.02-.95,9.32-5.14,6.43-3.99-2.75,1.72-8.99,5.14-6.43Z" style="fill:#fff; opacity:.1;"></path><path d="M349.84,186.13c-2.89-1.56-4.55-3.69-5.24-6.1,2.35,3.94,8.86,4.88,13.72,3.06,5.72-2.14,11.35-11.58,8.39-19.41,6.81,7.86-2.48,30.11-16.87,22.45Z" style="opacity:.2;"></path></g></g></g><g id="freepik--Mushrooms--inject-103"><g><g><path d="M199.05,201.56c4.04,9.46-2.72,19.66-11.98,19.27l5.98,11.83s-2.9,3.26-8.99,5.88c-5.91,3.01-10.27,3.17-10.27,3.17l-5.3-12.15c-5.61,7.38-17.77,6.09-22.48-3.06-4.71-9.14-8-28.86,13.95-39.2,21.97-10.31,35.06,4.79,39.1,14.25Z" style="fill:#FFC727;"></path><path d="M199.05,201.56c4.04,9.46-2.72,19.66-11.98,19.27l5.98,11.83s-2.9,3.26-8.99,5.88c-5.91,3.01-10.27,3.17-10.27,3.17l-5.3-12.15c-5.61,7.38-17.77,6.09-22.48-3.06-4.71-9.14-8-28.86,13.95-39.2,21.97-10.31,35.06,4.79,39.1,14.25Z" style="fill:#fff; opacity:.7;"></path><path d="M195.72,200.69c3.72,8.72-2.51,18.13-11.05,17.77l5.51,10.91s-2.68,3-8.29,5.43c-5.45,2.78-9.47,2.93-9.47,2.93l-4.89-11.2c-5.17,6.81-16.39,5.61-20.73-2.82-4.34-8.43-7.38-26.61,12.87-36.15,20.26-9.51,32.33,4.42,36.05,13.14Z" style="fill:#fff; opacity:.3;"></path><path d="M168.48,229.56s-2.36-13.36-7.41-12.83c-5.25,.54-7.92,7.31-3.51,11.55,4.27,4.11,10.92,1.28,10.92,1.28Z" style="opacity:.2;"></path><path d="M187.08,220.82s-8.78-10.33-5.16-13.89c3.76-3.7,10.68-1.44,11.14,4.67,.44,5.91-5.98,9.23-5.98,9.23Z" style="opacity:.2;"></path><path d="M150.85,196.35c-4.13,.46-7.22,15.41-4.34,17.18,2.88,1.77,6.32-2.95,6.65-5.74,.33-2.79-.3-11.66-2.31-11.44Z" style="fill:#fff; opacity:.3;"></path></g><g><path d="M157.25,205.94c-6.71,7.8-18.84,6.24-22.58-2.24l-7.98,10.59s-4.2-1.17-9.25-5.47c-5.31-3.97-7.38-7.81-7.38-7.81l8.56-10.12c-9.1-1.77-13.31-13.26-7.19-21.52,6.12-8.26,22.36-19.92,41.34-4.79,18.96,15.16,11.18,33.57,4.48,41.37Z" style="fill:#FFC727;"></path><path d="M157.25,205.94c-6.71,7.8-18.84,6.24-22.58-2.24l-7.98,10.59s-4.2-1.17-9.25-5.47c-5.31-3.97-7.38-7.81-7.38-7.81l8.56-10.12c-9.1-1.77-13.31-13.26-7.19-21.52,6.12-8.26,22.36-19.92,41.34-4.79,18.96,15.16,11.18,33.57,4.48,41.37Z" style="fill:#fff; opacity:.7;"></path><path d="M156.55,202.57c-6.18,7.19-17.37,5.75-20.82-2.07l-7.36,9.76s-3.88-1.08-8.53-5.04c-4.9-3.66-6.81-7.2-6.81-7.2l7.89-9.33c-8.39-1.63-12.27-12.22-6.63-19.85,5.64-7.62,20.62-18.37,38.12-4.42,17.48,13.98,10.31,30.96,4.13,38.15Z" style="fill:#fff; opacity:.3;"></path><path d="M118.62,190.88s10.94-8.01,8.24-12.32c-2.8-4.47-10.05-3.88-11.91,1.95-1.8,5.65,3.67,10.36,3.67,10.36Z" style="opacity:.2;"></path><path d="M134.68,203.7s5.39-12.44,10.19-10.76c4.98,1.74,6.01,8.94,.73,12.05-5.11,3.01-10.92-1.29-10.92-1.29Z" style="opacity:.2;"></path><path d="M140.64,160.39c-2.23-3.5-17.01,.33-17.33,3.7s5.44,4.37,8.09,3.43c2.65-.93,10.33-5.42,9.24-7.13Z" style="fill:#fff; opacity:.3;"></path></g><g><path d="M233.95,155.89c2.32,9.19-5.29,17.51-13.67,15.83l3.75,11.63s-3.11,2.55-9.03,4.07c-5.81,1.9-9.8,1.42-9.8,1.42l-3.09-11.82c-6.16,5.92-17.05,3-20.03-6-2.98-9-3.15-27.42,18.32-33.69,21.48-6.24,31.23,9.38,33.55,18.57Z" style="fill:#FFC727;"></path><path d="M233.95,155.89c2.32,9.19-5.29,17.51-13.67,15.83l3.75,11.63s-3.11,2.55-9.03,4.07c-5.81,1.9-9.8,1.42-9.8,1.42l-3.09-11.82c-6.16,5.92-17.05,3-20.03-6-2.98-9-3.15-27.42,18.32-33.69,21.48-6.24,31.23,9.38,33.55,18.57Z" style="fill:#fff; opacity:.6;"></path><path d="M231.04,154.63c2.14,8.48-4.88,16.14-12.6,14.59l3.46,10.72s-2.87,2.35-8.33,3.75c-5.36,1.75-9.04,1.31-9.04,1.31l-2.85-10.9c-5.68,5.46-15.72,2.76-18.47-5.53-2.75-8.3-2.91-25.28,16.89-31.07,19.81-5.76,28.8,8.65,30.94,17.13Z" style="fill:#fff; opacity:.3;"></path><path d="M202.11,177.02s-.23-12.5-4.91-12.75c-4.85-.26-8.26,5.52-4.85,10.02,3.3,4.35,9.76,2.73,9.76,2.73Z" style="opacity:.2;"></path><path d="M220.3,171.72s-6.52-10.67-2.71-13.39c3.96-2.83,9.93,.22,9.47,5.84-.44,5.45-6.76,7.55-6.76,7.55Z" style="opacity:.2;"></path><path d="M190.81,144.25c-3.83-.18-8.78,12.99-6.41,15.02,2.37,2.03,6.17-1.78,6.88-4.28s1.39-10.66-.47-10.74Z" style="fill:#fff; opacity:.3;"></path></g><g><path d="M153.15,77.61c7.14,6.23,5.62,17.4-2.23,20.79l9.7,7.43s-1.11,3.87-5.11,8.49c-3.7,4.87-7.25,6.75-7.25,6.75l-9.27-7.96c-1.7,8.37-12.31,12.17-19.88,6.47-7.57-5.7-18.2-20.74-4.13-38.13,14.1-17.36,31.02-10.07,38.16-3.84Z" style="fill:#FFC727;"></path><path d="M153.15,77.61c7.14,6.23,5.62,17.4-2.23,20.79l9.7,7.43s-1.11,3.87-5.11,8.49c-3.7,4.87-7.25,6.75-7.25,6.75l-9.27-7.96c-1.7,8.37-12.31,12.17-19.88,6.47-7.57-5.7-18.2-20.74-4.13-38.13,14.1-17.36,31.02-10.07,38.16-3.84Z" style="fill:#fff; opacity:.6;"></path><path d="M150.04,78.23c6.59,5.75,5.18,16.05-2.05,19.17l8.95,6.85s-1.02,3.56-4.71,7.83c-3.41,4.49-6.69,6.22-6.69,6.22l-8.55-7.34c-1.56,7.72-11.35,11.22-18.34,5.97-6.98-5.25-16.79-19.13-3.81-35.16,13-16.01,28.6-9.29,35.19-3.54Z" style="fill:#fff; opacity:.3;"></path><path d="M139,113.1s-7.31-10.14-11.29-7.68c-4.14,2.55-3.65,9.24,1.72,10.99,5.19,1.7,9.58-3.31,9.58-3.31Z" style="opacity:.2;"></path><path d="M150.93,98.39s-11.43-5.06-9.85-9.46c1.64-4.58,8.29-5.47,11.11-.59,2.74,4.73-1.26,10.05-1.26,10.05Z" style="opacity:.2;"></path><path d="M111.05,92.6c-3.25,2.03,.18,15.68,3.28,16,3.1,.32,4.06-4.98,3.22-7.43-.84-2.45-4.92-9.55-6.5-8.57Z" style="fill:#fff; opacity:.3;"></path></g></g></g></svg>
